<?xml version="1.0" encoding="UTF-8"?><svg id="Layer_1" xmlns="http://www.w3.org/2000/svg" viewBox="0 0 64 64"><path d="M62.72,49.75c0,3.47-2.82,6.29-6.29,6.29s-6.29-2.82-6.29-6.29,2.82-6.29,6.29-6.29,6.29,2.82,6.29,6.29" fill="#1aa6a6"/><path d="M12.6,25.84c1.37-4.7,7.06-8.51,12.76-8.6,6.02-.09,11.77,3.53,13.45,8.6H12.6ZM50.02,34.41c.08-.79.12-1.6.12-2.41,0-13.49-10.94-24.43-24.43-24.43S1.28,18.51,1.28,32s10.94,24.43,24.43,24.43c9.37,0,17.5-5.27,21.6-13.01h-12.33c-2.53,2.06-5.75,3.29-9.26,3.29-7.32,0-13.38-5.34-14.51-12.34l38.82.05h0Z"/><rect width="64" height="64" fill="none"/></svg>