<svg xmlns="http://www.w3.org/2000/svg" viewBox="0 0 100 100"><path fill="none" stroke="#251f21" stroke-miterlimit="10" stroke-width="2.5" d="M45.7 64.53h14.53M46.7 73.06h13.53M27.7 47.87h32.53M27.7 56.4h32.53M27.7 39.54h32.53M27.7 31.21h32.53M76.41 86.7l-46.67.04c-5.86 0-10.62-4.75-10.62-10.62V19.18h50.03l.03 60.29c0 3.99 3.24 7.23 7.23 7.23s7.23-3.24 7.23-7.23V50.68H69.71"/><circle cx="33.73" cy="71.02" r="10.07" fill="#9bddd4"/><path fill="none" stroke="#251f21" stroke-miterlimit="10" stroke-width="2.5" d="m28.37 76.37 10.71-10.7"/><circle cx="30.19" cy="67.48" r="1.51" fill="#251f21"/><circle cx="37.26" cy="74.55" r="1.51" fill="#251f21"/><path fill="none" d="M67.91 20.43H20.38v55.69c0 5.17 4.2 9.37 9.37 9.37l40.66-.04a8.444 8.444 0 0 1-2.48-5.98l-.03-59.04ZM33.73 81.08c-5.56 0-10.07-4.51-10.07-10.07s4.51-10.07 10.07-10.07S43.8 65.45 43.8 71.01s-4.51 10.07-10.07 10.07Zm26.5-6.77H46.7v-2.5h13.53v2.5Zm0-8.54H45.7v-2.5h14.53v2.5Zm0-8.12H27.7v-2.5h32.53v2.5Zm0-8.54H27.7v-2.5h32.53v2.5Zm0-8.33H27.7v-2.5h32.53v2.5Zm0-8.33H27.7v-2.5h32.53v2.5ZM70.43 79.47c0 3.3 2.68 5.98 5.98 5.98s5.98-2.68 5.98-5.98V51.93H70.42v27.54Z"/><path fill="#251f21" d="M45.7 63.27h14.53v2.5H45.7zM46.7 71.81h13.53v2.5H46.7zM27.7 46.61h32.53v2.5H27.7zM27.7 55.15h32.53v2.5H27.7zM27.7 38.28h32.53v2.5H27.7zM27.7 29.95h32.53v2.5H27.7z"/><path fill="#251f21" d="M70.42 49.43v-31.5H17.88v58.19c0 6.54 5.32 11.87 11.87 11.87l46.67-.04c4.68 0 8.48-3.8 8.48-8.48V49.43H70.43ZM29.75 85.49c-5.17 0-9.37-4.2-9.37-9.37V20.43h47.53l.03 59.04c0 2.33.95 4.45 2.48 5.98l-40.66.04Zm52.64-6.02c0 3.3-2.68 5.98-5.98 5.98s-5.98-2.68-5.98-5.98V51.93h11.96v27.54Z"/><path fill="#9bddd4" d="M33.73 60.95c-5.56 0-10.07 4.51-10.07 10.07s4.51 10.07 10.07 10.07S43.8 76.58 43.8 71.02s-4.51-10.07-10.07-10.07Zm-3.54 5.02c.84 0 1.51.68 1.51 1.51s-.68 1.51-1.51 1.51-1.51-.68-1.51-1.51.68-1.51 1.51-1.51Zm7.07 10.09c-.84 0-1.51-.68-1.51-1.51s.68-1.51 1.51-1.51 1.51.68 1.51 1.51-.68 1.51-1.51 1.51Zm-8 1.19-1.77-1.77L38.2 64.77l1.77 1.77-10.71 10.71Z"/><path fill="#251f21" d="M27.486 75.494 38.19 64.788l1.768 1.768-10.706 10.706z"/><circle cx="30.19" cy="67.48" r="1.51" fill="#251f21"/><circle cx="37.26" cy="74.55" r="1.51" fill="#251f21"/></svg>