<svg xmlns="http://www.w3.org/2000/svg" viewBox="0 0 100 100"><path fill="#9bddd4" d="M18.3 28.27h63.39v38.05H18.3z"/><path fill="#fff" d="M79.7 30.27v34.05H20.3V30.27h59.39m2.01-4H18.3c-1.1 0-2 .9-2 2v40.05h67.39V28.27c0-1.1-.9-2-2-2Z"/><path fill="none" stroke="#251f21" stroke-miterlimit="10" stroke-width="2.5" d="M18.25 26.27h63.5c1.1 0 2 .9 2 2v40.05h-67.5V28.27c0-1.1.9-2 2-2Z"/><path fill="none" stroke="#251f21" stroke-miterlimit="10" stroke-width="2.5" d="M11.02 68.31h77.95v.4c0 2.77-2.25 5.03-5.03 5.03H16.05c-2.77 0-5.03-2.25-5.03-5.03v-.4ZM55.01 39.65h19.6M55.01 47.29h19.6M55.01 54.93h12.74"/><path fill="#00a9a7" d="M72.47 57.43c-.67 0-1.3-.26-1.77-.73s-.73-1.1-.73-1.77.26-1.29.73-1.77 1.1-.73 1.77-.73 1.3.26 1.77.73c.98.98.97 2.56 0 3.54-.47.47-1.1.73-1.77.73Z"/><path fill="#fff" d="M72.47 53.43c.38 0 .77.15 1.06.44.59.59.59 1.54 0 2.12-.29.29-.68.44-1.06.44s-.77-.15-1.06-.44a1.49 1.49 0 0 1 0-2.12c.29-.29.68-.44 1.06-.44m0-2c-.93 0-1.81.36-2.47 1.03a3.513 3.513 0 0 0 0 4.95c.66.66 1.54 1.03 2.47 1.03s1.81-.36 2.47-1.03a3.513 3.513 0 0 0 0-4.95 3.482 3.482 0 0 0-2.47-1.03Z"/><path fill="#fff" stroke="#251f21" stroke-miterlimit="10" stroke-width="2.5" d="M41.36 41.55a7.64 7.64 0 0 1-5.03 13.39c-4.22 0-7.64-3.42-7.64-7.64s3.42-7.64 7.64-7.64c1.93 0 3.69.71 5.03 1.89"/><path fill="none" stroke="#251f21" stroke-miterlimit="10" stroke-width="2.5" d="M43.97 47.29h-7.64v-7.64"/><path fill="none" d="M85 69.56H12.37a3.785 3.785 0 0 0 3.68 2.92h67.9c1.79 0 3.29-1.25 3.68-2.92H85Z"/><path fill="#9bddd4" d="M79.7 30.27H20.3v34.05h59.39V30.27ZM55.01 38.4h19.61v2.5H55.01v-2.5Zm0 7.64h19.61v2.5H55.01v-2.5ZM36.33 56.18c-4.9 0-8.89-3.99-8.89-8.89s3.99-8.89 8.89-8.89a8.881 8.881 0 0 1 8.89 8.89c0 4.9-3.99 8.89-8.89 8.89Zm31.42 0H55v-2.5h12.75v2.5Zm7.2 1.22c-.66.66-1.54 1.03-2.47 1.03s-1.81-.36-2.47-1.03c-.66-.66-1.03-1.54-1.03-2.47s.36-1.81 1.03-2.47c.66-.66 1.54-1.03 2.47-1.03s1.81.36 2.47 1.03c.66.66 1.03 1.54 1.03 2.47s-.36 1.81-1.03 2.47Z"/><path fill="#251f21" d="M85 67.06V28.27c0-1.79-1.46-3.25-3.25-3.25h-63.5c-1.79 0-3.25 1.46-3.25 3.25v38.79H9.77v1.65a6.29 6.29 0 0 0 6.28 6.28h67.9a6.29 6.29 0 0 0 6.28-6.28v-1.65H85ZM18.25 27.52h63.5c.41 0 .75.34.75.75v38.79h-65V28.27c0-.41.34-.75.75-.75Zm65.7 44.96h-67.9c-1.79 0-3.29-1.25-3.68-2.92H87.63a3.785 3.785 0 0 1-3.68 2.92Z"/><path fill="#251f21" d="M55.01 38.4h19.61v2.5H55.01zM55.01 46.04h19.61v2.5H55.01zM55.01 53.68h12.75v2.5H55.01z"/><path fill="#00a9a7" d="M73.53 53.87c-.29-.29-.68-.44-1.06-.44s-.77.15-1.06.44a1.49 1.49 0 0 0 0 2.12c.29.29.68.44 1.06.44s.77-.15 1.06-.44c.59-.59.59-1.54 0-2.12Z"/><path fill="#251f21" d="M42.19 40.6a8.881 8.881 0 0 0-5.86-2.2c-4.9 0-8.89 3.99-8.89 8.89s3.99 8.89 8.89 8.89 8.89-3.99 8.89-8.89c0-2.56-1.1-5-3.03-6.69Zm-5.86 13.08c-3.52 0-6.39-2.87-6.39-6.39 0-3.09 2.21-5.68 5.14-6.26v7.51h7.51a6.393 6.393 0 0 1-6.26 5.14Zm1.25-12.65a6.334 6.334 0 0 1 5.01 5.01h-5.01v-5.01Z"/></svg>