<svg xmlns="http://www.w3.org/2000/svg" viewBox="0 0 100 100"><path fill="#9bddd4" d="M50 81.75c-17.51 0-31.75-14.24-31.75-31.75S32.49 18.25 50 18.25 81.75 32.49 81.75 50 67.51 81.75 50 81.75Z"/><path fill="#fff" d="M50 20.25c16.4 0 29.75 13.35 29.75 29.75S66.4 79.75 50 79.75 20.25 66.4 20.25 50 33.6 20.25 50 20.25m0-4c-18.64 0-33.75 15.11-33.75 33.75S31.36 83.75 50 83.75 83.75 68.64 83.75 50 68.64 16.25 50 16.25Z"/><circle cx="50" cy="50" r="33.75" fill="none" stroke="#251f21" stroke-miterlimit="10" stroke-width="2.5"/><path fill="none" stroke="#251f21" stroke-miterlimit="10" stroke-width="2.5" d="M50 26.61v3.9M38.3 29.75l1.95 3.37M29.74 38.31l3.38 1.95M26.61 50h3.9M29.74 61.7l3.38-1.95M38.3 70.26l1.95-3.38M50 73.39v-3.9M61.7 70.26l-1.95-3.38M70.26 61.7l-3.38-1.95M73.39 50h-3.9M70.26 38.31l-3.38 1.95M61.7 29.75l-1.95 3.37"/><circle cx="50" cy="50" r="2.5" fill="#00a9a7"/><path fill="#fff" d="M50 48.5c.83 0 1.5.67 1.5 1.5s-.67 1.5-1.5 1.5-1.5-.67-1.5-1.5.67-1.5 1.5-1.5m0-2c-1.93 0-3.5 1.57-3.5 3.5s1.57 3.5 3.5 3.5 3.5-1.57 3.5-3.5-1.57-3.5-3.5-3.5Z"/><path fill="none" stroke="#251f21" stroke-linejoin="bevel" stroke-width="2.5" d="M50 36.15V50h12.98"/><circle cx="50" cy="50" r="1.5" fill="#00a9a7"/><path fill="#9bddd4" d="M50 20.25C33.6 20.25 20.25 33.6 20.25 50S33.6 79.75 50 79.75 79.75 66.4 79.75 50 66.4 20.25 50 20.25Zm19.63 16.97 1.25 2.17-3.38 1.95-1.25-2.17 3.38-1.95Zm-9.02-8.1 2.17 1.25-1.95 3.38-2.17-1.25 1.95-3.38Zm-11.86-2.51h2.5v3.9h-2.5v-3.9ZM26.61 51.25v-2.5h3.9v2.5h-3.9Zm3.76 11.53-1.25-2.17 3.38-1.95 1.25 2.17-3.38 1.95Zm2.12-21.44-3.38-1.95 1.25-2.17 3.38 1.95-1.25 2.17Zm6.9 29.54-2.17-1.25 1.95-3.38 2.17 1.25-1.95 3.38Zm-.22-37.14-1.95-3.38 2.17-1.25 1.95 3.38-2.17 1.25Zm12.08 39.65h-2.5v-3.9h2.5v3.9Zm9.36-2.51-1.95-3.38 2.17-1.25 1.95 3.38-2.17 1.25Zm2.37-19.63h-9.72c-.51 1.31-1.77 2.25-3.26 2.25-1.93 0-3.5-1.57-3.5-3.5 0-1.49.94-2.75 2.25-3.26V36.15h2.5v10.59a3.55 3.55 0 0 1 2.01 2.01h9.72v2.5Zm6.65 11.53-3.38-1.95 1.25-2.17 3.38 1.95-1.25 2.17Zm-.14-11.53v-2.5h3.9v2.5h-3.9Z"/><path fill="#251f21" d="M50 15c-19.3 0-35 15.7-35 35s15.7 35 35 35 35-15.7 35-35-15.7-35-35-35ZM17.5 50c0-17.92 14.58-32.5 32.5-32.5S82.5 32.08 82.5 50 67.92 82.5 50 82.5 17.5 67.92 17.5 50Z"/><path fill="#251f21" d="M48.75 26.61h2.5v3.9h-2.5zM37.226 30.367l2.165-1.25 1.95 3.377-2.164 1.25zM29.12 39.387l1.25-2.165 3.378 1.95-1.25 2.165zM26.61 48.75h3.9v2.5h-3.9zM29.115 60.613l3.378-1.95 1.25 2.165-3.378 1.95zM37.226 69.631l1.95-3.377 2.165 1.25-1.95 3.377zM48.75 69.49h2.5v3.9h-2.5zM58.657 67.515l2.165-1.25 1.95 3.377-2.164 1.25zM66.251 60.819l1.25-2.165 3.378 1.95-1.25 2.166zM69.49 48.75h3.9v2.5h-3.9zM66.26 39.175l3.377-1.95 1.25 2.165-3.377 1.95zM58.662 32.494l1.95-3.378 2.165 1.25-1.95 3.378zM51.25 48.75v-12.6h-2.5v13.02c.27-.41.73-.67 1.25-.67.83 0 1.5.67 1.5 1.5 0 .52-.27.98-.67 1.25h12.15v-2.5H51.25Z"/><path fill="#00a9a7" d="M48.5 50a1.498 1.498 0 0 0 2.33 1.25c.4-.27.67-.73.67-1.25 0-.83-.67-1.5-1.5-1.5-.52 0-.98.27-1.25.67-.16.24-.25.52-.25.83Z"/></svg>