<svg xmlns="http://www.w3.org/2000/svg" width="666" height="568" viewBox="0 0 666 568">
    <g fill="none" fill-rule="evenodd">
        <g>
            <g>
                <path fill="#F1F0EC" d="M447.574 547.761c-11.24 8.224.128 15.561 14.325 10.115 7.651-2.934 14.986-5.832 22.816-7.796 2.528-.635 17.83-3.941 17.832-7.38.005-9.11-17.24-6.96-28.086-5.44-8.743 1.223-17.619 3.72-26.887 10.501m-248.72 5.028c-1.805.36-3.961 1.14-4.223 2.947-.214 1.492 1.043 2.766 2.257 3.672 9.96 7.43 23.361 7.906 35.828 8.08 1.456.017 2.963.03 4.303-.534 2.667-1.124 3.948-4.637 2.704-7.23-.452-.946-1.169-1.743-1.922-2.478-10.017-9.75-26.484-6.958-38.948-4.457M12.347 355.715c-3.051 2.688-.3 10.554.602 15.747.27 1.557.63 3.167 1.614 4.41 1.345 1.701 3.577 2.398 5.671 3.006 3.716 1.076 8.217 1.99 11.053-.618 2.104-1.936 2.403-5.091 2.398-7.936-.002-2.599-.142-5.196-.418-7.78-.133-1.24-.311-2.521-.976-3.581-.85-1.354-2.362-2.145-3.843-2.772-5.313-2.25-13.05-3.164-16.101-.476m616.532-143.509c.284 2.481 1.814 4.623 3.297 6.643 2.856 3.895 5.755 7.838 9.525 10.877 1.595 1.287 3.45 2.436 5.505 2.507 1.873.065 3.665-.782 5.183-1.871 3.699-2.65 6.193-6.886 6.704-11.378.702-6.164-2.167-12.165-5.5-17.415-2.065-3.252-4.475-6.493-7.93-8.236-5.794-2.923-9.625-.371-11.243 4.76-1.49 4.722-6.143 8.855-5.541 14.113m-76.01-150.17c1.644.568 3.448.044 5.104-.493 1.061-.345 2.364-1.104 2.079-2.175-.137-.515-.622-.856-1.096-1.11-2.18-1.166-5.005-2.026-7.196-.535-2.19 1.491-.538 3.745 1.108 4.312m-31.836-7.043c4.998 4.129 11.367 6.598 17.866 6.931 1.734.09 3.624-.02 4.963-1.118 1.655-1.361 1.832-4.14.364-5.698-.923-.979-2.27-1.42-3.521-1.928-2.138-.868-4.231-2.111-5.44-4.06-.352-.564-.654-1.212-1.237-1.541-3.617-2.033-19.57 1.983-12.995 7.414M331.226 20.994c-5.747 0-10.406 3.57-10.406 7.973 0 4.403 4.672 7.594 10.406 7.973 18.69 1.235 18.69-6.32 18.69-10.724 0-7.035-12.942-5.222-18.69-5.222m-190.65 51.44c21.869 1.464 31.018-13.458 41.292-32.635 28.13-52.503 90.775-47.443 111.788-15.114 14.883 22.9 46.982 18.19 72.945 9.227 25.556-8.821 69.096-17.295 103.775-6.755 30.29 9.208 42.72 42.423 70.332 40.38 60.235-4.457 90.601 55.01 79.694 80.946-7.122 16.927-10.659 35.863-4.868 53.282 6.377 19.184 20.941 34.372 32.714 50.864 11.77 16.492 21.253 37.108 15.401 56.455-5.008 16.557-19.946 28.01-29.22 42.65-28.795 45.464-.31 115.138-38.679 153.035-27.465 27.125-72.242 20.862-110.674 26.04-32.047 4.317-62.206 17.777-94.108 23.05-64.607 10.677-129.851-12.843-195.347-13.507-5.844-.058-11.717.062-17.591.182-17.313.357-34.642.714-51.327-3.535-29.813-7.59-55.184-30.528-65.527-59.245-14.273-39.628-.75-85.488-16.874-124.41-13.137-31.71-45.26-57.507-43.238-91.725 1.257-21.3 15.812-39.12 25.82-58.016 14.877-28.08-4.82-139.1 113.693-131.17" transform="translate(-411 -1071) translate(411 1071)"/>
                <path fill="#C8D7E5" d="M301.634 518.953c0 2.792-24.225 5.056-54.107 5.056-29.882 0-54.106-2.264-54.106-5.056 0-2.791 24.224-5.056 54.106-5.056s54.107 2.265 54.107 5.056M568.404 518.953c0 2.792-24.224 5.056-54.107 5.056-29.88 0-54.106-2.264-54.106-5.056 0-2.791 24.226-5.056 54.106-5.056 29.883 0 54.107 2.265 54.107 5.056M629.307 162.933c-.154-.952-.323-1.877-.504-2.78-.077-.38-.445-.626-.825-.55-.379.077-.624.445-.548.824.177.888.344 1.798.495 2.73.062.383.422.642.804.579.382-.062.641-.422.578-.803M627.455 154.66c-.556-1.892-1.182-3.669-1.873-5.337-.147-.357-.558-.527-.915-.378-.357.147-.526.557-.378.914.671 1.62 1.28 3.349 1.822 5.195.109.371.498.584.87.475.37-.11.583-.499.474-.87m-4.371-10.427c-.984-1.704-2.054-3.266-3.202-4.695-.242-.303-.683-.35-.984-.108-.302.242-.35.682-.108.984 1.102 1.372 2.132 2.874 3.082 4.52.193.334.621.449.956.255.334-.193.45-.621.256-.956m-7.122-8.824c-1.439-1.281-2.96-2.415-4.555-3.417-.328-.206-.76-.108-.966.22-.206.327-.107.76.22.965 1.532.964 2.991 2.05 4.37 3.278.289.256.732.23.989-.058.257-.29.23-.732-.058-.988m-9.584-6.068c-1.72-.751-3.5-1.391-5.33-1.934-.371-.111-.762.1-.87.471-.111.37.1.76.471.87 1.78.529 3.506 1.15 5.167 1.876.355.155.768-.007.922-.361.155-.355-.006-.766-.36-.922m-10.826-3.267c-1.826-.353-3.687-.634-5.577-.856-.383-.046-.73.229-.777.614-.044.383.23.73.614.777 1.86.218 3.687.494 5.474.84.379.072.746-.175.82-.555.073-.38-.175-.746-.554-.82m-11.182-1.355c-1.854-.117-3.726-.194-5.609-.241-.386-.01-.707.297-.716.683-.01.386.295.707.681.717 1.87.047 3.723.123 5.556.238.386.025.718-.268.743-.654.024-.386-.269-.718-.655-.743m-11.216-.31h-.481c-1.704 0-3.412.013-5.117.03-.387.004-.697.32-.693.707.004.386.32.697.707.693 1.702-.017 3.406-.03 5.103-.03h.479c.386.002.701-.312.701-.698 0-.387-.312-.7-.699-.702m-11.187.087c-1.148.01-2.293.018-3.431.02l-2.179.005c-.386 0-.7.315-.698.702.001.386.315.698.701.698l2.178-.005c1.143-.002 2.29-.01 3.442-.02.386-.003.697-.32.693-.706-.003-.386-.32-.697-.706-.694m-11.256.036l-5.624.012c-.388.001-.7.315-.698.701 0 .388.315.7.701.699l5.624-.012c.386-.001.698-.315.698-.701-.001-.386-.315-.7-.701-.699m-11.24.024l-5.609.011c-.388.002-.7.315-.699.702 0 .386.314.698.702.698 1.968-.004 3.84-.008 5.61-.01.386-.002.698-.316.698-.702-.001-.388-.315-.7-.701-.699m-11.217.023c-1.803.004-3.672.008-5.606.01-.386.002-.698.316-.698.702.001.388.315.7.701.699l5.606-.011c.386 0 .698-.315.698-.702-.001-.386-.315-.698-.701-.698m-11.208.023l-5.602.012c-.386.001-.7.315-.698.701 0 .386.313.7.701.699l5.601-.012c.387-.001.699-.315.699-.701-.001-.386-.315-.7-.701-.699m-11.203.023l-5.6.011c-.387.001-.7.315-.699.701 0 .388.315.7.702.699l5.6-.011c.386 0 .7-.315.698-.702-.001-.386-.315-.698-.701-.698m-11.2.024c-1.837.002-3.703.007-5.599.01-.386.002-.698.316-.698.702.001.387.315.7.701.699 1.896-.004 3.762-.009 5.599-.011.386-.002.7-.315.698-.702 0-.386-.315-.7-.701-.698m-11.197.022l-5.598.011c-.386.002-.7.315-.698.703.001.386.315.699.701.697l5.599-.011c.386 0 .698-.315.697-.701 0-.387-.314-.699-.701-.699m-11.195.024l-5.597.011c-.388.001-.7.315-.699.701 0 .387.315.7.702.699l5.597-.011c.386-.002.699-.315.699-.702-.002-.386-.315-.7-.702-.698m-11.194.022l-5.597.013c-.387 0-.699.313-.699.701.001.387.315.699.701.699l5.598-.013c.386 0 .698-.315.698-.701-.001-.387-.315-.699-.701-.699m-11.193.024l-5.597.011c-.387.002-.699.315-.699.702.001.386.315.7.701.698l5.598-.011c.386-.001.698-.315.698-.701-.001-.387-.315-.7-.701-.699m-11.193.022l-5.596.013c-.386 0-.699.314-.699.701.002.387.315.699.702.699l5.596-.013c.386 0 .7-.315.698-.701 0-.386-.315-.699-.701-.699m-11.192.024l-5.596.011c-.386.002-.698.315-.698.702.001.386.315.7.701.698l5.596-.01c.386-.002.7-.316.699-.702 0-.387-.315-.7-.702-.699m-11.191.023c-1.855.004-3.722.008-5.595.01-.386.002-.7.316-.698.704 0 .386.315.698.701.697l5.594-.011c.388 0 .7-.315.699-.702 0-.386-.314-.698-.701-.698m-11.19.023c-1.857.005-3.723.007-5.596.012-.387.001-.699.315-.698.701 0 .386.314.7.702.699l5.594-.012c.387-.001.7-.315.699-.701 0-.386-.315-.7-.702-.699m-11.19.023l-5.594.012c-.388 0-.7.314-.699.702 0 .386.314.698.702.698l5.594-.012c.386 0 .7-.315.699-.702-.002-.386-.315-.698-.702-.698m-11.19.024l-5.594.01c-.387.002-.7.316-.699.702 0 .387.315.7.701.699l5.595-.011c.386-.002.7-.315.698-.702 0-.386-.315-.7-.701-.698m-11.19.022l-5.595.011c-.386.002-.698.315-.698.703.001.386.315.699.701.699l5.595-.013c.387 0 .7-.315.7-.701-.002-.387-.315-.699-.703-.699m-11.189.024l-5.594.011c-.387.001-.7.315-.699.701 0 .387.315.7.701.699l5.595-.011c.386-.002.7-.315.698-.702-.001-.386-.315-.7-.701-.698m-11.189.022l-5.572.013c-.386 0-.7.313-.698.701 0 .387.315.699.701.697 1.86-.002 3.717-.007 5.572-.01.386 0 .699-.316.699-.702-.002-.387-.315-.699-.702-.699m-11.154.024l-5.588.011c-.387.002-.7.315-.699.702 0 .386.315.698.701.698l5.59-.011c.387-.001.7-.315.698-.701 0-.387-.314-.7-.702-.699m-11.187.022c-1.869.005-3.738.009-5.608.012-.387.001-.7.315-.699.701.001.388.315.7.701.699 1.87-.003 3.74-.007 5.609-.012.386 0 .698-.315.698-.701-.001-.386-.315-.699-.701-.699m-11.225.024l-5.595.011c-.387.002-.7.315-.698.702 0 .386.313.7.701.698 1.865-.004 3.73-.008 5.595-.01.386-.002.7-.316.698-.702-.001-.387-.315-.7-.701-.699m-11.19.023c-1.867.004-3.731.008-5.595.01-.386.002-.7.316-.698.704 0 .386.315.698.701.697l5.594-.011c.387 0 .7-.315.699-.702-.001-.386-.315-.698-.701-.698m-11.19.023c-1.867.003-3.732.007-5.595.012-.386 0-.7.315-.699.701.002.386.315.699.702.699 1.863-.005 3.728-.009 5.594-.012.388-.001.7-.315.699-.701 0-.386-.314-.7-.702-.699m-11.188.023l-5.596.011c-.387.001-.699.315-.697.701 0 .388.313.7.701.699l5.594-.011c.387 0 .699-.315.699-.702-.001-.386-.315-.698-.701-.698m-11.19.024c-1.868.002-3.733.007-5.595.01-.386.002-.7.316-.699.702 0 .387.315.7.702.699l5.594-.011c.387-.002.7-.315.699-.702 0-.386-.315-.7-.702-.698m-11.19.022l-5.594.011c-.387.002-.7.315-.699.702.002.387.315.7.702.698l5.595-.011c.387 0 .699-.315.698-.701 0-.387-.314-.699-.702-.699m-11.189.024l-5.595.011c-.387 0-.699.315-.699.701.001.387.315.699.701.699l5.596-.011c.387-.002.699-.315.699-.702-.002-.387-.315-.7-.702-.698m-11.19.022c-1.872.004-3.736.009-5.596.011-.386.002-.698.315-.698.702.001.388.315.7.701.698 1.86-.002 3.724-.007 5.596-.01.386 0 .699-.316.699-.702-.002-.387-.315-.699-.702-.699m-11.19.024l-5.596.011c-.386 0-.7.315-.698.702.001.386.315.698.701.698l5.596-.011c.386-.001.698-.315.698-.701-.001-.388-.315-.7-.701-.699m-11.192.022l-5.594.012c-.388.001-.7.315-.699.701 0 .388.314.7.702.699l5.594-.012c.388 0 .7-.315.699-.701 0-.386-.315-.699-.702-.699m-11.19.024l-5.596.011c-.386 0-.7.315-.698.702 0 .386.315.698.701.698 1.854-.004 3.72-.008 5.596-.01.386-.002.699-.316.699-.702-.002-.388-.315-.7-.702-.699m-11.191.023c-1.878.004-3.744.008-5.596.01-.387.002-.7.316-.699.702 0 .387.315.7.702.699l5.595-.011c.387 0 .699-.315.699-.702-.001-.386-.315-.698-.701-.698m-11.193.023c-1.88.003-3.745.007-5.596.012-.387 0-.699.315-.699.701.002.386.315.699.702.699 1.85-.005 3.717-.009 5.597-.012.386-.001.698-.315.697-.701 0-.386-.314-.7-.7-.699h-.001m-11.192.023l-5.597.011c-.387.001-.7.315-.699.701.002.388.315.7.702.699l5.597-.011c.386 0 .698-.315.698-.702-.001-.386-.315-.698-.701-.698m-11.194.024c-1.886.002-3.752.007-5.598.01-.386 0-.698.316-.698.702.001.387.315.699.701.699 1.845-.004 3.712-.009 5.597-.011.387-.002.7-.315.699-.702 0-.388-.315-.7-.701-.698m-11.195.022l-5.598.011c-.387.002-.699.315-.699.702.001.387.315.7.701.698l5.599-.011c.386-.001.699-.315.699-.701-.002-.387-.315-.699-.702-.699m-11.196.024l-5.6.011c-.386 0-.698.315-.698.701.001.387.315.699.701.699l5.6-.011c.387-.002.699-.315.699-.702-.002-.387-.315-.7-.702-.698m-11.198.022c-1.903.004-3.77.009-5.6.011-.387.002-.7.315-.699.702.002.386.315.7.702.698 1.83-.002 3.697-.007 5.6-.01.386 0 .698-.316.698-.702-.001-.387-.315-.699-.701-.699m-11.202.024l-5.601.011c-.386 0-.699.315-.699.702.002.386.315.698.702.698l5.601-.011c.388-.001.7-.315.699-.701 0-.387-.314-.7-.702-.699m-11.204.022l-5.604.012c-.388.001-.7.315-.699.701 0 .388.314.7.702.699l5.604-.012c.386 0 .699-.315.699-.701-.002-.386-.315-.699-.702-.699m-11.211.024l-5.61.011c-.386.002-.7.315-.698.702 0 .386.315.698.701.698l5.61-.01c.386-.002.698-.316.698-.702-.001-.388-.315-.7-.701-.699m-11.225.023l-5.623.012c-.386 0-.7.314-.698.7.001.388.315.7.701.7l5.623-.012c.387 0 .7-.315.698-.702 0-.386-.313-.698-.701-.698m-11.266.023l-4.193.009c-.505.001-1.004.01-1.497.026-.386.013-.688.336-.676.723.013.386.338.689.724.676.477-.015.962-.024 1.452-.025l4.193-.009c.386-.001.7-.315.698-.701 0-.386-.315-.7-.701-.699m-11.336.588c-1.947.325-3.788.783-5.523 1.361-.368.122-.565.518-.444.885.122.367.518.566.885.442 1.665-.553 3.434-.994 5.313-1.307.381-.065.639-.424.574-.807-.063-.38-.424-.638-.805-.574m-10.757 3.622c-1.717.931-3.296 2-4.74 3.181-.3.245-.344.686-.099.984.245.3.686.343.984.1 1.378-1.127 2.884-2.145 4.522-3.036.34-.183.467-.609.282-.947-.184-.34-.61-.467-.95-.282m-8.796 7.2c-1.227 1.47-2.308 3.044-3.245 4.695-.19.336-.073.763.263.954.338.19.765.073.955-.264.896-1.58 1.93-3.084 3.101-4.487.248-.297.209-.74-.088-.986-.297-.248-.738-.208-.986.088m-5.629 9.869c-.651 1.78-1.162 3.615-1.536 5.48-.077.378.168.747.548.824.379.076.747-.17.824-.549.361-1.797.853-3.563 1.479-5.275.133-.362-.055-.764-.418-.897-.364-.133-.765.054-.897.417m-2.255 11.119c-.045.78-.068 1.562-.068 2.343 0 1.116.045 2.23.135 3.338.03.386.368.673.753.643.385-.031.673-.369.643-.755-.087-1.071-.13-2.148-.13-3.226 0-.754.02-1.51.064-2.265.022-.385-.273-.715-.66-.738-.386-.022-.716.273-.737.66m.907 11.303c.411 1.865.953 3.69 1.621 5.453.136.362.54.544.902.408.362-.137.544-.542.407-.903-.643-1.697-1.165-3.46-1.562-5.26-.084-.378-.458-.616-.836-.532-.377.083-.615.456-.532.834m4.043 10.607c.955 1.666 2.041 3.238 3.256 4.688.25.296.69.335.986.086.297-.248.336-.689.087-.986-1.16-1.382-2.198-2.885-3.114-4.484-.192-.335-.619-.45-.955-.259-.336.192-.452.62-.26.955m7.346 8.687c1.488 1.183 3.104 2.212 4.844 3.057.347.168.766.024.935-.323.17-.349.024-.767-.323-.937-1.645-.798-3.174-1.77-4.585-2.893-.303-.241-.744-.19-.983.112-.241.302-.19.743.112.984m10.244 4.97c1.796.42 3.689.663 5.674.71.386.01.707-.297.715-.684.01-.386-.297-.707-.683-.715-1.89-.045-3.686-.277-5.389-.675-.376-.088-.751.146-.84.522-.088.377.146.754.523.842m11 1.391c1.726.532 3.315 1.36 4.744 2.418.31.23.749.165.979-.145.23-.311.165-.75-.146-.98-1.547-1.147-3.28-2.05-5.166-2.63-.368-.114-.76.094-.874.464-.114.368.093.76.462.873m8.52 6.226c1.06 1.437 1.936 3.034 2.596 4.724.14.36.546.537.906.396.361-.14.54-.546.398-.906-.704-1.802-1.637-3.507-2.775-5.045-.23-.311-.668-.377-.979-.147-.31.23-.376.667-.147.978m3.9 9.958c.086.756.131 1.517.131 2.275 0 1.04-.084 2.078-.253 3.101-.063.381.194.742.575.805.382.063.742-.194.805-.576.183-1.102.273-2.217.273-3.33 0-.813-.048-1.626-.14-2.434-.045-.384-.392-.66-.776-.616-.383.045-.659.392-.616.775m-1.79 10.458c-.794 1.542-1.841 2.99-3.173 4.296-.275.27-.278.714-.008.99.27.275.714.28.99.01 1.438-1.412 2.577-2.986 3.435-4.656.177-.344.041-.766-.302-.942-.344-.178-.766-.042-.942.302m-7.511 7.457c-1.48.795-3.156 1.47-5.04 1.995-.373.103-.59.49-.486.862.104.373.489.59.862.486 1.976-.55 3.748-1.263 5.326-2.11.342-.182.469-.606.286-.948-.184-.34-.608-.467-.948-.285m-10.41 3c-1.437.154-2.962.237-4.579.24-.322 0-.64.008-.953.019-.386.015-.687.342-.673.728.015.386.341.687.728.672.295-.013.596-.018.901-.018 1.662-.004 3.236-.09 4.724-.25.385-.04.662-.384.621-.77-.042-.384-.386-.662-.77-.621M45.48 233.2c-1.964.628-3.683 1.538-5.15 2.66-.309.235-.367.674-.132.982.235.307.673.366.981.13 1.34-1.023 2.91-1.857 4.728-2.438.368-.118.571-.511.452-.88-.117-.368-.51-.57-.879-.453m-9.054 6.96c-1.033 1.654-1.767 3.468-2.217 5.35-.09.377.142.753.518.844.376.09.754-.143.844-.518.417-1.744 1.096-3.417 2.042-4.933.205-.328.105-.76-.222-.965-.328-.204-.76-.105-.965.223m-2.727 11.099c.105 1.937.486 3.855 1.131 5.661.13.364.53.555.895.425.364-.13.553-.531.423-.895-.598-1.674-.952-3.46-1.052-5.267-.02-.386-.35-.682-.736-.66-.387.02-.682.35-.661.736m3.924 10.738c1.206 1.515 2.684 2.815 4.42 3.79.337.19.764.07.953-.266.19-.338.07-.765-.267-.954-1.568-.882-2.908-2.058-4.01-3.442-.24-.303-.681-.353-.984-.112-.302.24-.353.681-.112.984M46.855 267.483c.917.158 1.878.239 2.877.239h.037c.386.001.7-.312.701-.699 0-.386-.312-.7-.699-.701h-.039c-.922 0-1.803-.076-2.64-.218-.381-.066-.744.19-.81.57-.064.382.191.744.573.809" transform="translate(-411 -1071) translate(411 1071)"/>
                <path fill="#5E82B5" d="M55.489 265.75c.622 3.65-1.833 7.114-5.482 7.737-3.65.622-7.114-1.832-7.737-5.482-.623-3.65 1.831-7.114 5.483-7.737 3.65-.623 7.113 1.833 7.736 5.483M635.216 166.06c-.665 3.642-4.155 6.057-7.799 5.394-3.641-.664-6.058-4.155-5.393-7.798.662-3.643 4.155-6.058 7.797-5.394 3.644.663 6.058 4.155 5.395 7.798" transform="translate(-411 -1071) translate(411 1071)"/>
                <path fill="#D4D5CF" d="M123.83 216.776c-.966 5.446-2.38 10.766-4.102 16.016-3.71 11.326-8.834 22.232-14.014 32.998-2.702 5.628-13.664 18.648-19.544 21.126.686-14.686.742-31.836-.966-46.662-1.638-14.28 3.5-25.102-2.1-38.346-.714-1.694-1.456-3.388-2.198-5.082-2.786-6.3-5.544-12.628-6.412-19.418-1.12-8.61 1.554-18.424 9.002-22.904 5.362-3.22 12.348-3.052 18.074-.518 5.726 2.534 10.318 7.168 13.804 12.362 9.758 14.504 11.522 33.236 8.456 50.428" transform="translate(-411 -1071) translate(411 1071)"/>
                <path fill="#A5A6A0" d="M97.219 169.617c10.82 15.267 11.79 33.134 12.736 52.09.08 1.632.121 3.267.121 4.903 0 17.196-4.508 34.39-12.994 49.348-.19.336-.073.763.264.954.336.191.763.072.954-.264 8.608-15.173 13.176-32.597 13.176-50.038 0-1.658-.04-3.317-.124-4.973-.954-18.934-1.886-37.14-12.99-52.83-.225-.316-.662-.39-.977-.166-.316.223-.39.66-.166.976" transform="translate(-411 -1071) translate(411 1071)"/>
                <path fill="#13A391" d="M97.332 454.784c-7.683-6.791-15.457-13.685-21.134-22.222-4.944-7.437-8.137-15.881-12.45-23.7-2.792-5.06-6.088-9.935-7.705-15.483-1.617-5.55-1.229-12.118 2.714-16.344 4.111-4.408 11.184-5.083 16.767-2.812 5.584 2.272 9.85 6.965 13.11 12.034 4.329 6.736 7.221 14.388 8.427 22.3 1.092 7.172.813 14.5 1.926 21.667 1.039 6.678 3.283 13.092 6.112 19.21 2.567 5.55 9.068 15.443 10.727 21.131-4.595 2.302-15.22-12.887-18.494-15.78" transform="translate(-411 -1071) translate(411 1071)"/>
                <path fill="#146C5A" d="M112.69 469.304c-.105-.016-.207-.055-.3-.12-3.883-2.72-8.247-8.403-12.672-15.339-4.416-6.934-8.852-15.113-12.707-22.761-.72-1.434-1.303-2.91-1.785-4.414l1.468-.003c.434 1.298.949 2.563 1.568 3.787 3.84 7.62 8.26 15.767 12.636 22.638 4.164 6.548 8.324 11.946 11.788 14.577l.004 1.57v.065M84.81 425.27c-1.902-6.847-1.957-14.216-3.295-21.03-.755-3.879-1.852-7.956-3.634-11.418-1.785-3.466-4.231-6.296-7.695-7.812-.353-.155-.515-.568-.36-.922.115-.262.373-.419.642-.419.093 0 .189.018.28.059 3.843 1.681 6.503 4.807 8.377 8.453 1.878 3.651 2.995 7.844 3.765 11.792 1.375 7.122 1.442 14.588 3.37 21.294l-1.45.003" transform="translate(-411 -1071) translate(411 1071)"/>
                <path fill="#D4D5CF" d="M59.518 433.895c-6.375-2.517-14.89-3.552-18.978 1.95-3.423 4.608-1.65 11.139.714 16.369 1.996 4.414 4.532 8.904 8.74 11.304 2.876 1.64 6.245 2.132 9.533 2.524 9.165 1.09 18.4 1.624 27.631 1.597 10.7-.03 23.663 4.34 32.515 11.014-11.36-21.119-38.696-36.284-60.155-44.758" transform="translate(-411 -1071) translate(411 1071)"/>
                <path fill="#1E3F86" d="M48.303 448.323c8.103.343 16.236.916 23.926 3.192 3.888 1.146 13.557 5.253 22.78 9.796 4.615 2.274 9.13 4.66 12.776 6.842 1.822 1.09 3.428 2.13 4.713 3.073 1.286.94 2.254 1.795 2.78 2.458.243.301.684.35.985.11.302-.243.351-.684.11-.985-.671-.834-1.707-1.729-3.046-2.711-4.674-3.425-13.06-7.861-21.186-11.73-8.13-3.865-15.943-7.137-19.515-8.195-7.889-2.333-16.136-2.902-24.264-3.248-.387-.017-.713.283-.73.669-.015.386.284.713.67.73" transform="translate(-411 -1071) translate(411 1071)"/>
                <path fill="#62BDA8" d="M129.066 390.56c-8.295-12.995-22.495-22.065-37.778-24.117-5.062-.68-10.189-.63-15.309-.581-6.295.062-12.581.122-18.723-1.173-11.701-2.453-22.256-9.992-28.367-20.28-6.111-10.288-7.701-23.148-4.267-34.611 2.616-8.713 8.593-16.964 17.246-19.759 4.713-1.517 9.872-1.309 14.69-.15 4.444 1.072 8.578 2.93 12.384 5.354 8.712 5.515 15.745 14.006 21.037 23.015 4.802 8.193 16.653 20.948 24.71 29.244 4.728 4.847 8.162 8.162 8.162 8.162 5.532 6.869 2.945 26.703 6.215 34.895" transform="translate(-411 -1071) translate(411 1071)"/>
                <path fill="#13A391" d="M39.066 315.864c27.078 12.222 56.572 28.24 75.674 50.797.25.296.691.332.987.083.295-.25.332-.692.081-.987-19.356-22.842-49.02-38.907-76.167-51.17-.353-.158-.767-.001-.925.35-.16.353-.003.767.35.927" transform="translate(-411 -1071) translate(411 1071)"/>
                <path fill="#49B4A1" d="M112.46 358.44c-1.838-1.672-4.055-3.756-6.508-6.186l3.85-.007c.386-.001.7-.315.699-.701 0-.387-.314-.699-.7-.699h-.002l-5.246.01c-12.581-12.694-30.298-33.686-35.611-55.614 1.21.766 2.39 1.59 3.535 2.466 3.92 9.429 9.685 18.442 15.803 26.412-.549.133-1.087.298-1.609.493-.362.134-.546.537-.411.899.105.282.372.456.656.456.081 0 .163-.014.244-.043.665-.248 1.358-.443 2.07-.577 8.546 10.923 17.624 19.773 23.214 24.861l.017 8.23" transform="translate(-411 -1071) translate(411 1071)"/>
                <path fill="#5274AB" d="M96.352 264.257c-1.694 0-3.368-.988-3.836-3.02l-.024-.106c-.782-3.521-.38-7.186.103-10.76.106-.794.217-1.587.329-2.38l1.416 1.247c-.071 1.845.019 3.682.412 5.478l.028.112c.468 2.027 2.143 3.017 3.837 3.017.887 0 1.78-.272 2.505-.81l-.735 3.918c-.407 2.181-2.232 3.304-4.035 3.304m-1.9-16.786l-1.293-1.141c.911-6.443 1.785-12.912 1.25-19.38-.643-7.759-3.622-15.708-9.754-20.49-.389-1.49-.897-3.005-1.551-4.552-.714-1.694-1.456-3.388-2.198-5.082.518.168 1.022.35 1.512.56 9.212 3.948 13.468 13.692 14.252 23.156.658 7.812-.756 15.638-1.806 23.408-.16 1.168-.31 2.345-.412 3.521M105.448 239.72c.68-3.308 1.669-6.577 4.368-8.874.057-.049.116-.098.176-.146-.074 1.771-.194 3.542-.362 5.308-.755.294-1.459.725-2.08 1.254-.859.731-1.543 1.561-2.102 2.459m5.622-4.094c.175-1.94.294-3.886.356-5.832.25-.12.507-.226.769-.314l.012 6.097c-.038-.003-.077-.004-.116-.006l-.197-.002c-.278 0-.552.02-.824.057" transform="translate(-411 -1071) translate(411 1071)"/>
                <path fill="#25397B" d="M109.63 236.008c.168-1.766.288-3.537.362-5.308.441-.355.924-.662 1.434-.905-.062 1.946-.18 3.892-.356 5.832-.492.07-.975.199-1.44.38" transform="translate(-411 -1071) translate(411 1071)"/>
                <path fill="#8CCCBD" d="M117.877 354.945c-6.382-33.331-9.74-38.467-6.931-46.823 3.577-10.65 1.566-21.354 4.94-32.07 3.376-10.714 5.675-22.236 2.95-33.134-.86-3.447-2.605-7.203-6.745-7.346-1.659-.057-3.277.612-4.54 1.69-3.19 2.719-3.997 6.792-4.725 10.682l-2.439 13.009c-.791 4.23-6.905 4.479-7.87.284l-.025-.106c-.782-3.521-.38-7.186.103-10.76 1.048-7.778 2.46-15.6 1.814-23.421-.783-9.463-5.043-19.208-14.26-23.146-3.268-1.398-6.956-1.714-10.397-.832-9.62 2.47-12.111 11.872-10.7 19.9.994 5.649 3.644 10.844 6.041 16.056 5.852 12.728 1.56 24.4 2.369 38.387 2.237 38.6 50.415 77.63 50.415 77.63" transform="translate(-411 -1071) translate(411 1071)"/>
                <path fill="#13A391" d="M74.266 213.2c4.749 23.716 9.552 47.65 18.8 70.097 1.326 3.213 2.35 7.067 5.001 12.333 2.653 5.266 6.932 11.937 14.779 20.892.254.291.697.32.988.066.291-.255.32-.698.064-.989-7.788-8.887-11.988-15.452-14.58-20.6-2.593-5.149-3.582-8.89-4.958-12.235-9.18-22.279-13.975-46.122-18.72-69.838-.076-.38-.446-.626-.825-.549-.378.076-.625.444-.55.823" transform="translate(-411 -1071) translate(411 1071)"/>
                <path fill="#D4D5CF" d="M260.092 219.142c-4.914-5.614-9.45-11.326-14.224-16.828-3.094-3.57-6.286-7.056-9.758-10.36-1.722-1.652-3.5-3.248-5.376-4.802-11.088-9.156-23.464-16.758-36.694-22.414-7.98-3.416-16.408-6.23-23.184-11.676-6.776-5.432-11.648-14.364-9.394-22.75 1.638-6.048 6.776-10.752 12.67-12.908 5.88-2.142 12.404-1.974 18.522-.658 17.08 3.682 31.346 15.96 41.048 30.478.168.252.35.518.518.784 7.112 10.85 12.082 22.918 16.408 35.21 1.386 3.948 2.702 7.924 4.004 11.886 1.96 5.922 7.98 18.172 5.46 24.038" transform="translate(-411 -1071) translate(411 1071)"/>
                <path fill="#1E3F86" d="M181.83 131.69c18.385 3.5 31.471 15.702 45.295 28.707 13.721 12.9 23.678 29.77 28.339 48.018.095.374.477.6.85.506.376-.097.601-.478.506-.853-4.729-18.51-14.819-35.605-28.736-48.692-13.815-12.982-27.108-25.455-45.99-29.061-.38-.073-.746.176-.82.556-.072.379.177.746.557.819" transform="translate(-411 -1071) translate(411 1071)"/>
                <path fill="#5274AB" d="M233.589 179.746c-.48-3.129-.776-5.811-.923-7.56-.167-2.136-.253-4.281-.259-6.426 1.394 1.529 2.743 3.102 4.039 4.717.043 1.034.106 2.072.188 3.103.119 1.483.348 3.635.707 6.159l-3.752.007m2.793-11.558c-1.274-1.53-2.593-3.019-3.957-4.468.112-5.274.71-10.543 1.795-15.712 1.134 1.73 2.213 3.492 3.245 5.28-.795 4.925-1.158 9.918-1.083 14.9" transform="translate(-411 -1071) translate(411 1071)"/>
                <path fill="#25397B" d="M236.446 170.477c-1.296-1.615-2.645-3.188-4.039-4.717-.001-.68.004-1.36.018-2.04 1.364 1.45 2.683 2.939 3.957 4.468.01.763.033 1.524.064 2.289" transform="translate(-411 -1071) translate(411 1071)"/>
                <path fill="#62BDA8" d="M278.204 135.044c-1.577 6.987-5.799 13.024-9.516 19.15-1.961 3.226-3.791 6.541-5.5 9.901-5.472 10.75-9.65 22.168-12.4 33.914-.908 3.85-1.413 7.627-.685 11.537-9.187-2.097-12.845-28.204-13.47-35.966-1.1-13.974 1.28-28.292 7.033-41.094 2.513-5.62 5.754-11.135 10.749-14.733 4.981-3.597 12.043-4.861 17.32-1.725 3.183 1.888 5.22 5.026 6.215 8.594.968 3.331 1.011 7.047.254 10.422" transform="translate(-411 -1071) translate(411 1071)"/>
                <path fill="#13A391" d="M247.232 201.58c-1.846-4.628-2.733-11.088-2.73-18.324-.005-14.566 3.57-32.291 9.633-44.908 2.723-5.674 6.584-10.942 11.922-14.053.334-.195.447-.623.252-.956-.196-.335-.624-.448-.957-.252-5.683 3.316-9.68 8.83-12.478 14.655-6.18 12.881-9.768 30.723-9.772 45.514.002 7.353.883 13.947 2.829 18.842.144.36.55.535.91.392.358-.142.535-.55.39-.91" transform="translate(-411 -1071) translate(411 1071)"/>
                <path fill="#49B4A1" d="M263.187 164.095c-2.513-4.222-4.222-8.891-4.698-13.767-.773-8.133 2.334-16.845 8.95-21.633 3.093-2.23 6.72-3.493 10.511-4.073.093.318.177.64.252.965-2.247.708-4.377 1.72-6.302 3.108-6.617 4.788-9.723 13.5-8.95 21.633.317 3.281 1.196 6.462 2.501 9.48-.777 1.417-1.531 2.848-2.264 4.287" transform="translate(-411 -1071) translate(411 1071)"/>
                <path fill="#13A391" d="M331.191 195.808c-.431 2.676-1.233 5.249-2.379 7.731-4.074 8.817-12.622 16.384-25.438 22.54 0 0-.714-13.947-.862-17.678-.624-15.984-17.975-24.829-28.948-36.485-5.589-5.947-9.826-13.456-10.615-21.588-.772-8.133 2.334-16.845 8.95-21.633 5.546-3.998 12.8-4.876 19.626-4.355 11.002.876 22.107 5.485 28.948 14.08.296.326.55.669.802 1.01 4.193 5.725 6.349 12.697 7.925 19.64 2.736 12.028 3.97 24.547 1.991 36.738" transform="translate(-411 -1071) translate(411 1071)"/>
                <path fill="#146C5A" d="M312.913 179.582c-.875-5.874-2.761-11.522-5.868-16.661-6.871-11.377-18.774-18.837-30.754-25.03-.343-.176-.477-.599-.3-.942.125-.24.369-.379.622-.379.11 0 .219.025.322.078 12.038 6.23 24.191 13.786 31.309 25.549 3.249 5.375 5.196 11.273 6.083 17.382l-1.414.003" transform="translate(-411 -1071) translate(411 1071)"/>
                <path fill="#62BDA8" d="M532.09 298.921c7.652-12.601 3.743-28.808 6.407-43.308 2.047-11.146 8.25-21.481 17.124-28.53 5.57-4.426 13.394-7.585 19.685-4.269 1.362.718 2.984 1.73 4.297.921.784-.483 1.097-1.453 1.282-2.354 1.596-7.832-2.17-16.386.906-23.763 1.658-3.971 5.083-6.938 8.714-9.25 6.995-4.46 15.184-7.029 23.475-7.365 2.2-.09 4.491-.005 6.46.982 3.558 1.783 5.185 6.214 4.708 10.165-.478 3.952-2.656 7.487-5.075 10.648-8.038 10.51-19.816 19.58-21.369 32.72-.196 1.659-.196 3.417.566 4.903.736 1.435 2.108 2.46 2.878 3.876 2.477 4.552-2.305 9.71-6.977 11.948-4.266 2.042-8.896 3.323-13.604 3.764-3.241.304-6.905.381-9.111 2.777-4.07 4.42.606 11.488-.247 17.437-.533 3.712-3.227 6.71-5.93 9.31-5.02 4.827-10.514 9.161-16.379 12.916-4.754 3.046-9.786 5.737-14.001 9.495-4.215 3.757-7.622 8.84-7.896 14.48l4.087-27.503" transform="translate(-411 -1071) translate(411 1071)"/>
                <path fill="#13A391" d="M542.86 286.805c1.225-5.985 4.03-11.579 6.843-17.141 4.395-8.696 8.854-17.454 15.404-24.485 4.97-5.344 11.113-9.625 16.306-15.022 3.7-3.85 6.853-8.223 9.331-12.954 1.34-2.566 2.475-5.181 4.187-7.31 2.028-2.533 4.893-4.405 7.48-6.715 3.49-3.125 6.3-7 8.185-11.288.155-.355-.004-.768-.358-.923-.355-.155-.768.006-.923.358-1.805 4.105-4.498 7.82-7.839 10.81-2.47 2.22-5.412 4.121-7.635 6.882-1.868 2.33-3.026 5.037-4.337 7.536-2.415 4.613-5.491 8.88-9.1 12.634-5.059 5.27-11.209 9.554-16.322 15.037-6.727 7.229-11.23 16.114-15.628 24.808-2.811 5.564-5.688 11.263-6.965 17.492-.078.38.167.749.545.827.38.077.749-.166.826-.546" transform="translate(-411 -1071) translate(411 1071)"/>
                <path fill="#D4D5CF" d="M641.998 307.664c-1.722 6.636-4.284 13.202-8.68 18.466-3.038 3.626-6.818 6.496-10.948 8.834-2.128 1.218-4.368 2.282-6.622 3.234-8.764 3.682-18.186 5.768-27.678 6.132-4.672.175-9.39-.057-14.1-.29-9.232-.455-18.439-.911-27.228 1.704-6.09 1.806-11.704 5.096-16.31 9.45-2.884 2.702-5.362 5.824-7.322 9.254l1.806-11.48c3.346-12.348 6.76-24.92 13.594-35.742 4.41-7.014 10.136-13.118 16.226-18.732 9.73-8.988 20.524-16.898 32.438-22.68 9.632-4.676 20.328-7.966 30.968-6.664 10.626 1.288 21.07 8.008 24.388 18.186 2.128 6.538 1.204 13.678-.532 20.328" transform="translate(-411 -1071) translate(411 1071)"/>
                <path fill="#1E3F86" d="M534.541 344.62c10.076-14.909 25.179-26.373 42.248-32.07 10.638-3.556 21.974-4.918 32.915-8.072 10.944-3.16 21.945-8.53 28.465-18.084.217-.32.136-.755-.185-.973-.319-.219-.754-.136-.971.185-6.222 9.137-16.905 14.417-27.697 17.526-10.795 3.12-22.149 4.48-32.97 8.09-17.368 5.798-32.71 17.445-42.966 32.614-.217.32-.131.756.188.971.32.217.756.133.973-.187" transform="translate(-411 -1071) translate(411 1071)"/>
                <path fill="#62BDA8" d="M540.658 454.509c.604-15.44 8.586-29.694 18.28-41.729 8.084-10.036 17.84-19.222 29.89-23.794 3.774-1.434 7.918-2.394 11.84-1.432 3.92.964 7.474 4.319 7.545 8.356.059 3.405-2.226 6.379-4.634 8.788-7.921 7.934-18.16 13.024-27.755 18.824-16.493 9.967-32.168 23.273-38.713 41.398l3.547-10.411" transform="translate(-411 -1071) translate(411 1071)"/>
                <path fill="#13A391" d="M547.399 441.284c4.977-11.109 13.955-21.691 23.82-29.782 9.86-8.096 20.623-13.69 29.021-14.907.382-.056.648-.412.592-.794-.056-.382-.411-.647-.793-.592-8.812 1.295-19.697 7.007-29.707 15.21-10.002 8.209-19.109 18.918-24.21 30.293-.158.351-.002.765.351.924.353.158.767.001.926-.352M534.356 466.785c-.137-2.588 8.3-9.353 10.203-11.078 10.535-9.555 23.061-16.584 36.29-20.737 5.353-1.681 11.039-2.902 16.395-1.608 5.357 1.292 10.27 5.68 10.796 11.457.51 5.602-3.25 11.084-8.046 13.794-4.795 2.712-10.405 3.122-15.754 2.81-8.266-.481-16.38-2.535-24.675-2.472-8.295.064-19.942.903-25.209 7.834" transform="translate(-411 -1071) translate(411 1071)"/>
                <path fill="#146C5A" d="M562.49 451.647l-.004-1.464c10.923-3.331 22.732-5.341 33.298-5.344 2.929 0 5.764.155 8.459.481.383.047.658.395.61.779-.042.355-.344.616-.693.616-.028 0-.057-.002-.085-.006-2.632-.318-5.411-.47-8.291-.47h-.028c-10.513 0-22.36 2.044-33.267 5.408" transform="translate(-411 -1071) translate(411 1071)"/>
                <path fill="#169186" d="M320.27 179.567c-1.921-7.655-3.324-16.102-3.9-25.329-.344-5.471 1.188-11.106 4.103-15.819.296.327.55.67.802 1.011 1.29 1.763 2.39 3.644 3.336 5.606-1.207 3.371-1.763 6.969-1.541 10.504.541 8.698 1.82 16.708 3.575 24.014l-6.375.013" transform="translate(-411 -1071) translate(411 1071)"/>
                <path fill="#8CCCBD" d="M389.84 195.101c12.661-4.497 25.81-8.083 37.321-15.015 3.482-2.096 6.836-4.533 9.307-7.759 2.47-3.225 3.987-7.34 3.437-11.365-.56-4.093-3.18-8.013-2.297-12.05.58-2.66 2.577-4.739 4.103-6.994 3.63-5.365 4.71-12.377 2.865-18.586-1.986-6.67-6.985-12.008-9.83-18.359-2.324-5.188-3.155-11.033-2.369-16.662-10.62.141-20.315 5.943-30.759 7.88-7.988 1.481-16.299.675-24.217 2.495-14.44 3.318-26.243 16.026-28.489 30.671-6.699-1.15-13.905 1.264-18.558 6.218-4.95 5.268-7.735 12.75-7.284 19.965 3.262 52.4 33.26 79.734 33.26 79.734s28.683-38.458 33.51-40.173" transform="translate(-411 -1071) translate(411 1071)"/>
                <path fill="#13A391" d="M362.218 194.664c-.154-1.516-.228-3.03-.228-4.543-.003-11.176 4-22.257 8.562-32.723 5.046-11.584 10.839-22.908 18.595-32.805 7.753-9.895 17.594-18.358 29.167-23.103.359-.145.53-.554.383-.913-.147-.357-.556-.529-.913-.382-11.86 4.864-21.871 13.495-29.739 23.534-7.867 10.04-13.707 21.475-18.777 33.11-4.58 10.521-8.674 21.767-8.678 33.282 0 1.559.075 3.12.235 4.685.039.385.382.665.767.626.385-.04.665-.384.626-.768" transform="translate(-411 -1071) translate(411 1071)"/>
                <path fill="#13A391" d="M372.093 108.692c-.4 3.462-.596 7.13-.596 10.874 0 8.821 1.09 18.06 3.217 26 .1.373.483.595.857.495.374-.1.595-.483.496-.857-2.09-7.795-3.171-16.933-3.17-25.638 0-3.695.193-7.311.587-10.713.044-.385-.231-.732-.615-.776-.385-.045-.732.231-.776.615M377.924 141.848c12.012-7.715 30.162-12.671 45.027-12.664 1.215 0 2.408.033 3.574.099.385.022.717-.272.74-.658.02-.386-.273-.717-.66-.74-1.194-.068-2.413-.101-3.654-.101-15.169.008-33.461 4.992-45.783 12.885-.326.209-.42.641-.211.968.209.324.641.42.967.211M345.092 144.059c3.826 1.614 6.732 4.223 8.97 7.366 3.354 4.711 5.171 10.628 6.17 15.988 1.003 5.362 1.193 10.148 1.352 12.644.025.385.358.679.743.654.386-.026.679-.357.654-.744-.212-3.297-.478-10.841-2.704-18.428-1.114-3.797-2.718-7.612-5.075-10.926-2.354-3.31-5.47-6.119-9.566-7.845-.357-.15-.767.017-.917.374-.151.355.017.765.373.917M367.01 165.767c8.634-6.198 20.13-9.282 30.633-9.28 3.99 0 7.838.445 11.324 1.322.375.094.756-.133.85-.508.093-.375-.134-.756-.509-.85-3.615-.908-7.571-1.362-11.665-1.362-10.773.003-22.512 3.135-31.45 9.54-.313.225-.386.663-.16.977.225.314.662.386.977.161M399.133 102.348c-3.277 4.048-4.417 8.738-4.418 12.427 0 .568.026 1.113.078 1.63.038.384.38.664.764.627.385-.038.667-.381.629-.765-.046-.469-.071-.969-.071-1.492-.002-3.41 1.064-7.797 4.106-11.545.243-.3.197-.742-.104-.985-.3-.242-.74-.196-.984.103M399.26 113.674c3.297-1.688 7.301-2.595 11.71-2.595 2.814 0 5.793.37 8.854 1.137.375.095.756-.133.85-.509.093-.375-.134-.754-.509-.85-3.167-.793-6.258-1.178-9.195-1.178-4.6 0-8.821.945-12.348 2.75-.344.176-.48.599-.304.942.177.344.598.48.942.303" transform="translate(-411 -1071) translate(411 1071)"/>
                <path fill="#496A71" d="M87.216 138.393c1.49-.079 11.646-7.602 15.558-10.136 1.1-.714 2.218-1.462 2.986-2.524.769-1.063 1.127-2.52.569-3.705-.695-1.473-1.847-2.941-4.753-2.937-5.061.011-6.817 1.674-9.278 4.218-8.137 8.414-5.082 15.084-5.082 15.084M132.75 168.734c4.42 1.986 9.146 3.967 13.955 3.353 1.866-.238 3.901-1.087 4.522-2.862.53-1.516-.202-3.255-1.403-4.32-1.204-1.066-2.79-1.581-4.35-1.962-5.887-1.438-14.151-.642-19.98 1.014 0 0 4.616 3.59 7.255 4.777M161.874 103.42c-1.973-1.248-4.151-2.913-4.15-5.245.003-2.34 2.442-4.123 4.781-4.136 2.34-.01 4.51 1.266 6.268 2.809 7.44 6.53 6.514 13.98 6.514 13.98s-11.217-6.023-13.413-7.409M167.74 83.493c-1.73-.743-3.517-1.64-4.53-3.227-.496-.773-.776-1.751-.471-2.616.51-1.448 1.415-2.747 5.064-2.085 11.55 2.094 14.065 10.004 14.065 10.004s-11.061-.757-14.128-2.076M201.579 100.989c4.633-.399 9.416-2.706 12.337-6.325 1.103-1.367 2.112-2.874 2.48-4.59.367-1.717-.025-3.686-1.353-4.83-1.623-1.398-4.196-1.174-5.982.005-1.787 1.179-2.935 3.102-3.864 5.031-1.238 2.57-3.618 10.709-3.618 10.709" transform="translate(-411 -1071) translate(411 1071)"/>
                <path fill="#496A71" d="M119.32 269.392l-33.654-29.666c-5.98-5.268-12.01-10.647-15.715-17.515-2.772-5.133-4.026-10.807-4.026-16.582-.005-10.82 4.424-21.994 11.492-30.44 10.857-12.985 26.835-20.707 42.963-26.334 16.128-5.634 32.991-9.598 48.505-17.108 4.875-2.362 9.777-5.306 13.82-9.002 4.042-3.695 7.229-8.158 8.598-13.528.458-1.8.68-3.65.68-5.5 0-4.808-1.506-9.619-4.352-13.515-3.943-5.393-10.328-8.879-16.996-9.282-.387-.021-.718.273-.74.658-.025.386.27.718.656.74 6.235.37 12.27 3.664 15.95 8.71 2.661 3.641 4.084 8.173 4.082 12.69 0 1.737-.21 3.472-.637 5.153-1.283 5.04-4.284 9.272-8.185 12.84-3.898 3.567-8.692 6.453-13.487 8.776-15.324 7.424-32.132 11.385-48.356 17.045-16.221 5.666-32.446 13.462-43.575 26.76-7.266 8.69-11.816 20.134-11.82 31.337 0 5.977 1.302 11.889 4.196 17.247 3.868 7.158 10.045 12.626 16.022 17.9l33.653 29.666c.29.256.732.228.988-.061.255-.292.227-.734-.063-.989" transform="translate(-411 -1071) translate(411 1071)"/>
                <path fill="#1E3F86" d="M208.751 90.019c-1.454 4.487-5.099 8.205-9.135 11.814-4.026 3.614-8.417 7.1-11.235 11.305-.215.322-.129.756.193.972.321.214.756.127.97-.193 2.633-3.947 6.936-7.4 11.007-11.042 4.062-3.646 7.919-7.496 9.53-12.422.12-.369-.081-.763-.448-.882-.368-.12-.763.08-.882.448M166.041 101.543c2.415 2.541 5.204 4.581 7.167 7.208 1.933 2.577 3.05 5.937 3.048 9.338-.003 3.865-1.423 7.763-4.675 10.72-.285.26-.306.702-.047.99.26.285.702.306.99.047 3.567-3.24 5.135-7.553 5.132-11.757-.002-3.705-1.203-7.34-3.328-10.178-2.14-2.844-4.983-4.907-7.27-7.33-.266-.28-.709-.293-.989-.027-.281.266-.294.708-.028.99M105.715 154.308c10.013 7.711 23.137 12.844 35.791 13.338.387.015.713-.286.727-.672.015-.387-.286-.711-.672-.727-12.314-.474-25.211-5.507-34.99-13.048-.307-.236-.746-.179-.983.128-.235.305-.18.744.127.981" transform="translate(-411 -1071) translate(411 1071)"/>
                <path fill="#496A71" d="M84.148 167.419c-1.111-3.276-1.643-6.72-1.643-10.175-.004-10.388 4.833-20.857 13.144-27.11.31-.232.371-.672.139-.981-.232-.308-.672-.37-.98-.137-8.7 6.556-13.7 17.413-13.705 28.228 0 3.6.556 7.194 1.72 10.626.124.365.522.561.887.438.367-.125.563-.522.438-.888" transform="translate(-411 -1071) translate(411 1071)"/>
                <path fill="#62BDA8" d="M599.479 329.615c6.129.487 12.413 1.69 17.477 5.18 5.063 3.487 8.623 9.716 7.441 15.75-1.373 7.026-8.64 11.599-15.748 12.462-7.108.864-14.21-1.09-21.224-2.535-15.52-3.196-31.544-3.927-47.291-2.162-3.927.441-7.654 1.22-11.094 3.229-1.104-9.372 22.258-21.574 29.356-24.755 12.807-5.739 27.084-8.285 41.083-7.17" transform="translate(-411 -1071) translate(411 1071)"/>
                <path fill="#13A391" d="M535.581 356.157c4.918-4.331 13.374-8.15 23.061-10.84 9.688-2.696 20.614-4.288 30.506-4.288 2.878 0 5.67.134 8.317.416 6.258.66 12.516 2.53 17.237 6.515.296.25.738.213.987-.084.25-.295.212-.736-.084-.985-5.03-4.24-11.565-6.158-17.993-6.84-2.702-.285-5.542-.422-8.464-.422-10.04.001-21.069 1.61-30.881 4.34-9.813 2.735-18.405 6.57-23.611 11.137-.29.255-.318.697-.063.988.255.29.697.318.988.063" transform="translate(-411 -1071) translate(411 1071)"/>
                <path fill="#1E3F86" d="M513.457 241.812l5.6-.011c.386-.001.699-.315.699-.701-.002-.387-.315-.7-.702-.699l-5.6.011c-.386.002-.7.315-.698.702 0 .386.315.7.701.698m11.2-.022l5.6-.013c.386 0 .699-.315.699-.701-.002-.387-.315-.699-.702-.699l-5.6.013c-.386 0-.7.315-.698.701 0 .387.315.699.701.699m11.2-.024l5.6-.011c.386-.002.699-.315.699-.702-.002-.386-.315-.7-.702-.698l-5.6.011c-.386.001-.7.315-.698.701 0 .387.315.7.701.699m11.2-.022l5.6-.013c.386 0 .699-.315.699-.701-.002-.387-.315-.699-.702-.699l-5.6.013c-.386 0-.7.313-.698.701 0 .386.315.699.701.699m11.2-.024l5.6-.011c.386-.002.699-.315.699-.702-.002-.386-.315-.7-.702-.698l-5.6.01c-.386.002-.7.316-.698.702 0 .387.315.7.701.699m11.2-.024l5.6-.011c.386 0 .699-.315.699-.702-.002-.386-.315-.698-.702-.698l-5.6.012c-.386 0-.7.314-.698.702 0 .386.315.698.701.697m11.2-.022l5.6-.012c.386-.001.699-.315.699-.701-.002-.386-.315-.7-.702-.699l-5.6.012c-.386.001-.7.315-.698.701 0 .386.315.7.701.699m11.2-.023l5.6-.012c.386 0 .699-.315.699-.702-.002-.386-.315-.698-.702-.698l-5.6.012c-.386 0-.7.314-.698.702 0 .386.315.698.701.698m11.2-.024l5.6-.01c.386-.002.699-.316.699-.702-.002-.387-.315-.7-.702-.699l-5.6.011c-.386.002-.7.315-.698.702 0 .386.315.7.701.698m11.2-.022l5.6-.013c.386 0 .699-.315.699-.701-.002-.386-.315-.699-.702-.699l-5.6.013c-.388 0-.7.314-.698.701 0 .387.315.699.701.699m11.2-.024l1.24-.003h.05c1.419 0 2.81.128 4.16.37.381.069.745-.185.812-.566.069-.379-.183-.743-.564-.812-1.432-.257-2.905-.392-4.409-.392h-.053l-1.239.003c-.386.002-.7.315-.698.702 0 .386.315.698.701.698m10.64 1.945c1.672.73 3.241 1.652 4.683 2.737.308.232.748.17.98-.139.232-.31.17-.747-.139-.98-1.527-1.15-3.19-2.126-4.964-2.9-.354-.156-.766.005-.921.36-.156.353.007.766.361.922m8.611 6.478c1.154 1.387 2.152 2.909 2.963 4.54.172.346.593.487.94.315.345-.172.486-.592.314-.938-.86-1.73-1.918-3.343-3.141-4.813-.247-.297-.69-.338-.986-.09-.297.246-.337.689-.09.986m4.795 9.643c.391 1.685.6 3.44.602 5.244v-.001.148c-.001.387.311.702.698.703.386.001.701-.31.702-.697v-.156c-.004-1.91-.224-3.77-.637-5.556-.088-.377-.463-.612-.84-.525-.376.088-.611.463-.525.84m-.044 10.776c-.429 1.785-1.063 3.488-1.876 5.089-.175.344-.038.765.306.94.345.175.766.038.941-.306.862-1.696 1.534-3.504 1.99-5.396.09-.376-.14-.754-.517-.844-.375-.091-.753.14-.844.517m-4.88 9.605c-1.171 1.383-2.5 2.63-3.959 3.707-.31.231-.376.67-.147.98.23.311.668.377.979.147 1.547-1.144 2.955-2.462 4.196-3.928.25-.296.213-.737-.081-.987-.296-.25-.738-.213-.987.081m-8.664 6.404c-1.645.702-3.386 1.222-5.2 1.533-.381.065-.638.427-.572.807.065.381.427.637.808.573 1.924-.329 3.77-.88 5.515-1.625.355-.153.52-.565.368-.92-.151-.354-.563-.52-.919-.368m-10.663 1.873l-5.6.011c-.387 0-.699.315-.698.701 0 .387.314.699.7.699l5.602-.013c.386 0 .698-.313.697-.701 0-.386-.314-.699-.701-.697m-11.2.022l-5.6.011c-.387.002-.699.315-.699.702.001.386.315.7.701.698l5.602-.01c.386-.002.698-.316.697-.702 0-.387-.314-.7-.701-.699m-11.2.024l-5.6.011c-.387 0-.699.315-.698.702 0 .386.314.698.702.698l5.6-.011c.386-.001.698-.315.697-.703 0-.386-.314-.698-.701-.697m-11.2.022l-5.599.012c-.388.001-.7.315-.699.701 0 .386.314.7.702.699l5.6-.012c.386-.001.698-.315.698-.701-.001-.386-.315-.7-.702-.699m-11.2.024l-5.599.011c-.388 0-.7.315-.699.702 0 .386.314.698.702.698l5.6-.01c.386-.002.698-.316.698-.702-.001-.388-.315-.7-.702-.699m-11.2.023l-5.599.01c-.388.002-.7.316-.699.702 0 .388.314.7.702.699l5.6-.011c.386-.002.698-.315.698-.702-.001-.386-.315-.7-.702-.698m-11.199.023l-5.6.012c-.388 0-.7.315-.699.701 0 .386.314.699.702.699l5.6-.012c.386-.001.698-.315.698-.701-.001-.388-.315-.7-.701-.699M170.813 323.558l-5.6.013c-.387 0-.699.313-.699.7.001.388.315.7.701.7l5.6-.013c.387 0 .7-.315.699-.701 0-.387-.315-.699-.701-.699m-11.2.024l-5.6.011c-.387 0-.699.315-.699.702.001.386.315.698.701.698l5.6-.011c.387-.001.7-.315.699-.701 0-.388-.315-.7-.701-.699m-11.2.022l-5.6.012c-.387.001-.699.315-.699.701.001.388.315.7.701.699l5.6-.012c.387 0 .7-.315.699-.701 0-.386-.315-.699-.701-.699m-11.2.024l-5.6.011c-.387 0-.699.315-.699.702.001.386.315.698.701.698l5.6-.01c.387-.002.7-.316.699-.702 0-.388-.315-.7-.701-.699m-11.2.023l-5.6.01c-.387.002-.699.316-.699.702.001.387.315.7.701.699l5.6-.011c.387-.002.7-.315.699-.702 0-.386-.315-.7-.701-.698m-11.2.022l-5.6.013c-.387 0-.699.315-.699.701.001.386.315.699.701.699l5.6-.013c.387 0 .7-.314.699-.701 0-.387-.315-.699-.701-.699m-11.2.024l-5.6.011c-.387.001-.699.315-.699.701.001.387.315.7.701.699l5.6-.011c.387-.002.7-.315.699-.702 0-.386-.315-.7-.701-.698m-11.2.022l-.794.002c-1.738.004-3.406.319-4.948.893-.362.134-.546.537-.411.899.134.362.537.547.9.413 1.389-.517 2.89-.801 4.462-.804l.793-.003c.388 0 .7-.315.699-.701 0-.387-.315-.699-.701-.699m-10.687 4.013c-1.404 1.356-2.53 2.997-3.285 4.832-.149.357.022.766.379.915.357.147.767-.024.914-.381.682-1.654 1.698-3.136 2.965-4.36.279-.269.286-.712.017-.99-.269-.278-.711-.285-.99-.016m-4.355 10.578c.043 2.03.51 3.96 1.316 5.697.162.35.58.502.93.34.351-.163.504-.58.34-.93-.727-1.566-1.147-3.302-1.186-5.136-.008-.387-.329-.693-.715-.685-.387.008-.693.328-.685.714m4.809 10.384c1.456 1.29 3.18 2.289 5.075 2.9.368.12.763-.082.882-.45s-.084-.762-.45-.88c-1.71-.554-3.264-1.453-4.579-2.619-.288-.256-.73-.23-.987.06-.257.29-.23.733.059.989m10.822 3.587l5.6-.012c.386-.001.7-.315.699-.701 0-.386-.315-.7-.702-.699l-5.6.012c-.386 0-.698.315-.698.701.001.386.315.699.701.699m11.2-.023l5.6-.011c.386-.001.7-.315.699-.701 0-.387-.315-.7-.702-.699l-5.6.011c-.386 0-.7.315-.698.702.001.386.315.698.701.698" transform="translate(-411 -1071) translate(411 1071)"/>
                <path fill="#C8D7E5" d="M44.41 384.888c-2.045.004-3.949.232-5.708.654-.377.09-.608.469-.518.844.09.377.469.608.844.518 1.648-.395 3.444-.612 5.386-.616.386-.001.7-.315.698-.701 0-.387-.315-.7-.701-.699m-11.085 2.77c-1.738.999-3.244 2.232-4.51 3.638-.259.288-.235.73.052.988.287.26.73.235.988-.052 1.17-1.297 2.558-2.436 4.168-3.361.335-.193.45-.62.258-.956-.193-.335-.62-.45-.956-.258m-7.663 8.5c-.788 1.764-1.309 3.644-1.554 5.57-.049.384.223.735.607.783.383.049.733-.221.782-.605.228-1.795.713-3.54 1.444-5.177.158-.353 0-.766-.353-.924-.353-.158-.767 0-.926.353m-1.471 11.345c.291 1.882.844 3.744 1.663 5.529.163.351.578.505.93.344.351-.162.504-.578.343-.928-.765-1.666-1.281-3.405-1.553-5.16-.059-.381-.417-.643-.8-.584-.381.059-.643.417-.583.8m4.768 10.393c1.204 1.417 2.628 2.72 4.273 3.865.318.221.753.143.975-.175.22-.316.142-.753-.175-.974-1.547-1.077-2.88-2.299-4.006-3.623-.249-.294-.691-.33-.985-.08-.296.25-.332.691-.082.987m9.337 6.576c1.681.672 3.513 1.212 5.494 1.596.379.074.746-.175.82-.555.073-.38-.175-.746-.554-.82-1.899-.368-3.645-.884-5.24-1.522-.359-.143-.766.03-.91.39-.143.359.032.766.39.91m11.155 2.236c.556.021 1.12.033 1.694.033h.093l3.886-.007c.386-.002.699-.315.699-.702-.002-.386-.315-.7-.703-.698l-3.885.007h.001-.09c-.557 0-1.104-.01-1.64-.031-.387-.016-.711.285-.727.672-.015.386.286.711.672.726m11.315.013l5.63-.011c.386 0 .698-.315.698-.702-.001-.386-.315-.7-.701-.698l-5.63.011c-.386.001-.698.315-.698.701.001.388.315.7.701.699m11.25-.022c1.783-.005 3.656-.009 5.619-.012.387-.001.7-.315.698-.701 0-.388-.313-.7-.701-.699-1.963.003-3.838.007-5.618.012-.387 0-.699.315-.699.701.001.386.315.699.701.699m11.235-.024l5.613-.011c.386-.002.7-.315.699-.702 0-.386-.315-.7-.702-.698-1.932.004-3.804.008-5.614.01-.386.002-.698.316-.698.702.001.387.315.7.702.699m11.226-.023l5.61-.012c.387 0 .7-.314.7-.702-.002-.386-.316-.698-.702-.698l-5.611.012c-.387 0-.7.315-.699.702 0 .386.315.698.702.698m11.22-.023l5.61-.012c.387-.001.699-.315.699-.701-.001-.386-.315-.7-.701-.699l-5.61.012c-.387.001-.7.315-.699.701.002.386.315.7.702.699m11.218-.023l5.608-.012c.387 0 .7-.315.699-.702-.002-.386-.315-.698-.702-.698l-5.608.012c-.386 0-.7.315-.699.702.002.386.315.698.702.698m11.217-.024l5.607-.01c.386-.002.698-.316.698-.702-.001-.387-.315-.7-.701-.699l-5.607.011c-.388.002-.7.315-.699.702 0 .386.314.7.702.698m11.214-.022l5.607-.013c.386 0 .698-.315.698-.701-.001-.386-.315-.699-.701-.699l-5.607.013c-.387 0-.7.314-.699.701 0 .387.315.699.702.699m11.214-.024l5.605-.011c.387-.001.7-.315.699-.701-.002-.387-.315-.7-.702-.699l-5.605.011c-.388.002-.7.315-.7.702.001.386.315.7.703.698m11.21-.022l5.608-.013c.386 0 .698-.315.698-.701-.001-.387-.315-.699-.701-.699l-5.607.013c-.386 0-.699.313-.699.7.002.388.315.7.702.7m11.212-.024l5.606-.011c.386-.002.699-.315.699-.702-.002-.387-.315-.7-.702-.698l-5.605.011c-.387 0-.7.315-.699.701 0 .387.315.699.701.699m11.212-.024l5.605-.011c.387 0 .699-.315.697-.701 0-.387-.313-.699-.701-.699l-5.604.011c-.388.002-.7.315-.699.702 0 .387.315.7.702.698m11.21-.022c1.859-.004 3.728-.009 5.605-.011.386-.002.699-.315.699-.702-.002-.388-.315-.7-.702-.698-1.877.002-3.746.007-5.605.01-.387 0-.699.316-.699.702.001.387.315.699.701.699m11.212-.024l5.604-.011c.386 0 .7-.315.698-.702-.001-.386-.315-.698-.701-.698l-5.606.011c-.386.001-.698.315-.697.701 0 .387.314.7.702.699m11.21-.022c1.86-.005 3.729-.009 5.604-.012.386-.001.698-.315.698-.701-.001-.388-.315-.7-.701-.699-1.875.003-3.744.007-5.606.012-.386 0-.698.315-.698.701.001.386.315.699.702.699m11.209-.024l5.605-.011c.387-.002.699-.315.699-.702-.001-.386-.315-.7-.701-.698-1.875.004-3.743.008-5.606.01-.386.002-.699.316-.699.702.002.387.315.7.702.699m11.21-.023l5.604-.012c.386 0 .7-.314.698-.702-.001-.386-.315-.698-.701-.698l-5.604.012c-.387 0-.7.315-.699.702 0 .386.315.698.702.698m11.208-.023c1.865-.005 3.732-.007 5.604-.012.388-.001.7-.315.699-.701 0-.386-.315-.7-.702-.699-1.871.005-3.739.007-5.604.012-.386.001-.698.315-.698.701.001.386.315.7.701.699m11.208-.023l5.606-.012c.386 0 .699-.314.699-.702-.002-.386-.315-.698-.702-.698l-5.605.012c-.387 0-.699.315-.699.702.001.386.315.698.701.698m11.188-.024l5.591-.01c.387-.002.7-.316.699-.702 0-.387-.315-.7-.701-.699l-5.592.011c-.386.002-.699.315-.699.702.002.386.315.7.702.698m11.191-.022l5.609-.013c.386 0 .7-.313.698-.701 0-.386-.315-.699-.701-.699l-5.608.013c-.387 0-.699.315-.699.701.001.387.315.699.701.699m11.226-.024l5.625-.011c.386-.001.7-.315.698-.701 0-.387-.315-.7-.701-.699l-5.625.011c-.387.002-.699.315-.699.702.002.386.315.7.702.698m11.23-.022l5.605-.013c.386 0 .7-.315.698-.701 0-.387-.315-.699-.701-.699l-5.604.013c-.387 0-.7.315-.699.701 0 .387.315.699.701.699m11.209-.024l5.605-.011c.387-.002.699-.315.699-.702-.001-.386-.315-.7-.701-.698l-5.606.011c-.386.001-.699.315-.699.701.002.387.315.7.702.699m11.21-.022l5.604-.013c.386 0 .7-.315.698-.701 0-.387-.315-.699-.701-.699l-5.604.013c-.387 0-.7.313-.699.701.002.386.315.699.702.699m11.21-.024l5.604-.011c.386-.002.698-.315.698-.702-.001-.386-.315-.7-.701-.698l-5.606.01c-.386.002-.698.316-.698.702.001.387.315.7.702.699m11.209-.023l5.604-.012c.386 0 .7-.315.699-.702 0-.386-.315-.698-.702-.698l-5.604.012c-.386 0-.7.314-.699.7 0 .388.315.7.702.7m11.208-.023l5.606-.012c.386-.001.698-.315.698-.701-.001-.386-.315-.7-.701-.699l-5.606.012c-.386 0-.698.315-.697.701 0 .386.314.699.7.699m11.21-.024l5.606-.011c.386 0 .698-.315.698-.702-.001-.386-.315-.698-.703-.698-1.862.004-3.73.008-5.604.01-.386.002-.698.316-.698.702.001.388.315.7.701.699m11.21-.023c1.874-.004 3.743-.008 5.604-.01.388-.002.7-.316.699-.702 0-.388-.314-.7-.702-.699l-5.604.011c-.386 0-.7.315-.699.702 0 .386.315.698.702.698m11.21-.023c1.876-.003 3.743-.007 5.604-.012.388 0 .7-.315.7-.701-.002-.386-.315-.699-.703-.699-1.86.005-3.728.009-5.604.012-.387.001-.7.315-.699.701 0 .386.315.7.702.699m11.21-.023l5.605-.011c.386-.001.699-.315.699-.701-.002-.388-.315-.7-.702-.699l-5.605.011c-.387 0-.699.315-.699.702.001.386.315.698.701.698m11.212-.024l5.605-.01c.387-.002.699-.316.697-.702 0-.387-.313-.699-.7-.699-1.857.004-3.726.009-5.605.011-.387.002-.7.315-.699.702 0 .386.315.7.702.698m11.21-.022l5.606-.013c.387 0 .699-.313.698-.7 0-.387-.314-.7-.7-.7l-5.606.013c-.388 0-.7.315-.7.701.001.387.315.699.701.699m11.213-.024l5.606-.011c.386-.001.698-.315.698-.701-.001-.387-.315-.7-.701-.699l-5.606.011c-.388.002-.7.315-.698.702 0 .386.315.7.701.698m11.211-.022l5.607-.013c.387 0 .699-.313.699-.701-.002-.387-.315-.699-.702-.699l-5.607.013c-.386 0-.698.315-.698.701.001.387.315.699.701.699m11.214-.024l5.606-.011c.388-.002.7-.315.698-.702 0-.386-.313-.7-.701-.698l-5.606.011c-.387.001-.7.315-.698.701 0 .387.313.7.701.699m11.214-.022l5.607-.013c.387 0 .699-.315.699-.701-.002-.387-.315-.699-.702-.699l-5.608.013c-.386 0-.699.315-.697.701 0 .386.313.699.701.699m11.214-.024l5.609-.011c.387-.002.7-.315.698-.702 0-.386-.315-.7-.701-.698l-5.609.01c-.386.002-.698.316-.697.702 0 .387.314.7.702.699h-.002m11.218-.023l5.609-.012c.388 0 .7-.315.698-.702 0-.386-.315-.698-.701-.698l-5.608.012c-.388 0-.7.315-.699.702 0 .386.315.698.701.698m11.22-.023l5.61-.012c.386-.001.7-.315.698-.701 0-.386-.315-.7-.701-.699l-5.61.012c-.388.001-.7.315-.7.701.002.386.315.7.703.699m11.222-.023l5.613-.012c.388 0 .7-.315.7-.702-.001-.386-.315-.698-.703-.698l-5.612.012c-.387 0-.7.314-.699.702 0 .386.315.698.701.698m11.228-.024c1.962-.004 3.836-.008 5.619-.01.386-.002.7-.316.698-.702 0-.388-.315-.7-.701-.699l-5.618.011c-.387.002-.699.315-.698.702 0 .386.314.7.702.698h-.002m11.241-.023c2.038-.005 3.917-.007 5.628-.012.386-.001.699-.315.699-.701-.002-.386-.315-.699-.702-.699-1.71.005-3.59.007-5.628.012-.388.001-.7.315-.698.701 0 .388.315.7.701.699m11.269-.023l5.643-.011c.386-.001.699-.315.699-.701-.002-.388-.315-.7-.702-.7l-5.643.012c-.387 0-.7.315-.699.702.002.386.315.698.702.698m11.366-.865c1.946-.62 3.665-1.555 5.141-2.723.304-.24.354-.68.115-.984-.24-.303-.68-.354-.983-.115-1.347 1.065-2.913 1.92-4.698 2.488-.369.117-.572.51-.454.879.118.368.511.573.88.455m8.982-7.092c1.009-1.668 1.729-3.498 2.144-5.393.083-.378-.156-.75-.533-.835-.378-.082-.752.157-.834.535-.384 1.75-1.048 3.437-1.976 4.966-.2.332-.094.762.237.962.33.2.76.095.962-.235m2.47-11.184c-.201-1.922-.716-3.819-1.559-5.593-.167-.35-.584-.498-.934-.331-.348.165-.497.583-.33.932.771 1.624 1.246 3.366 1.432 5.138.04.385.384.664.769.624.385-.04.663-.385.623-.77m-4.956-10.316c-1.332-1.285-2.935-2.393-4.807-3.254-.351-.162-.767-.008-.93.343-.16.352-.006.767.345.928 1.735.8 3.202 1.816 4.42 2.99.277.268.721.261.99-.017.267-.279.26-.723-.018-.99m-10.331-4.907c-1.42-.233-2.937-.356-4.557-.356h-.067.003l-.34.002c-.246 0-.488-.002-.729-.003-.386-.002-.701.31-.702.697-.003.386.309.701.695.703.244.001.489.003.735.003l.343-.002h.062c1.548 0 2.99.118 4.33.338.381.063.74-.196.804-.577.063-.382-.196-.742-.577-.805m-11.26-.483c-1.935-.081-3.786-.2-5.558-.352-.385-.033-.724.252-.756.637-.034.385.252.724.637.758 1.792.154 3.664.273 5.618.355.386.017.713-.284.728-.67.017-.385-.284-.713-.67-.728m-11.083-.969c-1.94-.27-3.765-.587-5.473-.94-.378-.078-.749.166-.827.544-.078.38.165.749.545.827 1.74.36 3.592.68 5.562.955.382.053.736-.214.79-.596.053-.384-.215-.737-.597-.79m-10.843-2.282c-1.924-.574-3.65-1.203-5.181-1.872-.355-.154-.768.007-.923.361-.154.355.008.768.363.923 1.59.694 3.368 1.341 5.34 1.93.37.111.76-.1.871-.47.111-.37-.1-.761-.47-.872m-9.964-4.487c-1.74-1.212-2.979-2.477-3.756-3.709-.207-.326-.64-.424-.966-.218-.328.207-.424.64-.218.966.905 1.432 2.283 2.815 4.14 4.11.317.22.754.143.975-.175.22-.317.143-.753-.175-.974m-4.58-8.46c.425-1.378 1.478-2.713 3.201-3.864.322-.216.409-.65.193-.972-.214-.32-.65-.407-.97-.193-1.916 1.278-3.216 2.852-3.762 4.616-.114.37.093.761.462.875.37.115.762-.093.875-.462m8.105-6.037c1.578-.455 3.374-.802 5.375-1.014.383-.039.662-.383.623-.768-.041-.385-.385-.664-.77-.623-2.074.218-3.948.578-5.616 1.061-.372.106-.586.494-.479.867.108.37.496.585.867.477" transform="translate(-411 -1071) translate(411 1071)"/>
                <path fill="#5E82B5" d="M50.761 384.461c.623 3.65-1.832 7.113-5.482 7.736-3.65.622-7.114-1.832-7.737-5.48-.621-3.652 1.833-7.115 5.483-7.738 3.65-.622 7.113 1.832 7.736 5.482" transform="translate(-411 -1071) translate(411 1071)"/>
                <path fill="#1E3F86" d="M545.077 366.856c.623 3.65-1.832 7.115-5.48 7.736-3.652.623-7.114-1.83-7.738-5.482-.622-3.648 1.832-7.113 5.482-7.735 3.651-.622 7.113 1.833 7.736 5.481" transform="translate(-411 -1071) translate(411 1071)"/>
                <path fill="#169186" d="M553.962 261.44l-.006-2.882c2.384-4.223 5.002-8.312 8.11-12.042l.005 2.22c-3.085 3.929-5.693 8.25-8.11 12.704" transform="translate(-411 -1071) translate(411 1071)"/>
                <path fill="#25397B" d="M554.092 324.346l-.003-1.727c2.607-1.87 5.322-3.591 8.123-5.154l.004 1.606c-2.807 1.599-5.52 3.362-8.124 5.275" transform="translate(-411 -1071) translate(411 1071)"/>
                <path fill="#169186" d="M554.309 429.408l-.006-2.362c.34-.45.684-.9 1.032-1.347l1.79-.002c-.976 1.216-1.917 2.455-2.816 3.711m2.146-5.11c1.876-2.304 3.877-4.528 5.964-6.65l.004 2.008c-1.433 1.5-2.82 3.049-4.15 4.638l-1.818.004" transform="translate(-411 -1071) translate(411 1071)"/>
                <path fill="#135F52" d="M554.36 454.468l-.002-1.5c2.628-1.006 5.35-1.938 8.128-2.785l.003 1.464c-2.783.858-5.505 1.802-8.128 2.821" transform="translate(-411 -1071) translate(411 1071)"/>
                <path fill="#169186" d="M554.138 346.68l-.003-1.47c1.349-.435 2.728-.85 4.132-1.241 1.313-.366 2.647-.71 3.998-1.035l.003 1.44c-1.225.298-2.435.613-3.626.943-1.534.427-3.04.882-4.504 1.362" transform="translate(-411 -1071) translate(411 1071)"/>
                <path fill="#25397B" d="M554.02 289.852l-.002-1.4 4.036-.009h.001c.385 0 .699.313.7.699 0 .386-.312.7-.698.701l-4.036.009m4.235-48.132c-.387 0-.7-.312-.7-.699-.002-.386.312-.7.698-.701l3.8-.009.003 1.402-3.8.007h-.001" transform="translate(-411 -1071) translate(411 1071)"/>
                <path fill="#A9BCD6" d="M554.3 425.702l-.002-1.4c.788-.001 1.508-.004 2.157-.004l1.819-.004 1.632-.004h.002c.385 0 .698.313.7.7 0 .386-.313.7-.699.701-.61 0-1.544.003-2.783.006l-1.79.002c-.331.002-.676.002-1.035.003m7.385-32.973c-.038 0-.076-.002-.114-.01-1.34-.22-2.782-.337-4.33-.337h-.062l-.343.002c-.246 0-.491-.002-.735-.003-.386-.002-.698-.317-.695-.703.001-.385.313-.697.7-.697h.002c.241.001.483.003.728.003l.34-.002h-.002.067c1.62 0 3.137.123 4.557.356.286.047.504.263.567.529v.32c-.073.32-.358.542-.68.542" transform="translate(-411 -1071) translate(411 1071)"/>
                <path fill="#FFFFFE" d="M544.131 478.526l-421.245.869c-5.62.011-10.185-4.536-10.196-10.156l-.577-279.066c-.01-5.62 4.535-10.186 10.156-10.197l421.245-.868c5.62-.013 10.185 4.534 10.197 10.154l.576 279.066c.01 5.62-4.535 10.185-10.156 10.198" transform="translate(-411 -1071) translate(411 1071)"/>
                <path fill="#132529" d="M542.828 179.11l-419.442.866c-6.118.012-11.067 4.982-11.054 11.1l.02 9.632 441.597-.911-.02-9.632c-.013-6.118-4.983-11.067-11.101-11.055" transform="translate(-411 -1071) translate(411 1071)"/>
                <path fill="#D4D5CF" d="M123.89 479.395l63.375-.132-.575-278.709-74.452.154.553 267.645c.013 6.11 4.981 11.055 11.1 11.042" transform="translate(-411 -1071) translate(411 1071)"/>
                <path fill="#3A5796" d="M543.637 179.109h-.021l-421.245.87c-5.62.01-10.167 4.576-10.154 10.196l.575 279.066c.012 5.614 4.566 10.155 10.176 10.155h.02l421.245-.869c5.621-.011 10.168-4.577 10.156-10.196l-.576-279.068c-.012-5.612-4.565-10.154-10.176-10.154m.001 2.8c4.059 0 7.367 3.303 7.375 7.36l.576 279.066c.008 4.068-3.293 7.384-7.361 7.392l-421.26.87c-4.059 0-7.367-3.303-7.376-7.362l-.575-279.066c0-1.97.759-3.823 2.149-5.22 1.39-1.396 3.241-2.166 5.212-2.17l421.238-.87h.022" transform="translate(-411 -1071) translate(411 1071)"/>
                <path fill="#FFFFFE" d="M176.576 458.09l-48.839.1c-2.154.005-3.906-1.738-3.91-3.893l-.001-.483c-.004-2.154 1.739-3.906 3.895-3.91l48.839-.1c2.154-.005 3.904 1.738 3.91 3.893v.484c.005 2.155-1.738 3.905-3.894 3.909M170.705 269.009l-41.583.085c-3.948.008-7.154-3.185-7.162-7.134l-.087-41.58c-.009-3.95 3.186-7.156 7.134-7.164l41.582-.087c3.948-.008 7.155 3.186 7.163 7.136l.086 41.58c.008 3.95-3.187 7.155-7.133 7.164" transform="translate(-411 -1071) translate(411 1071)"/>
                <path fill="#D4D5CF" d="M348.715 259.168l-144.87.3c-2.815.005-5.101-2.271-5.108-5.087v-.631c-.006-2.814 2.27-5.1 5.085-5.106l144.869-.298c2.815-.007 5.102 2.27 5.109 5.083v.633c.005 2.814-2.271 5.1-5.085 5.106M344.541 228.51l-114.483.236c-2.816.007-5.1-2.27-5.107-5.085l-.002-.631c-.005-2.816 2.271-5.1 5.086-5.107l114.485-.236c2.814-.007 5.1 2.271 5.106 5.085l.002.632c.005 2.814-2.271 5.1-5.087 5.107M521.318 344.292l-152.64.314c-2.815.005-5.1-2.271-5.11-5.085v-.633c-.005-2.812 2.272-5.099 5.087-5.106l152.64-.315c2.815-.004 5.1 2.271 5.108 5.087v.631c.007 2.814-2.271 5.1-5.085 5.107M348.76 281.546l-144.87.298c-2.814.005-5.1-2.272-5.107-5.085v-.633c-.005-2.814 2.271-5.1 5.085-5.106l144.87-.3c2.815-.005 5.1 2.272 5.108 5.087v.631c.005 2.814-2.271 5.102-5.086 5.108M348.806 303.92l-144.87.3c-2.813.006-5.1-2.27-5.107-5.085v-.631c-.005-2.816 2.271-5.102 5.085-5.107l144.87-.3c2.815-.004 5.101 2.272 5.108 5.086v.632c.006 2.814-2.27 5.1-5.086 5.105M203.937 326.62c-2.814.006-5.1-2.27-5.106-5.085l-.002-.631c-.005-2.816 2.271-5.102 5.085-5.107l20.27-.3c2.815-.004 5.101 2.272 5.107 5.086l.001.632c.006 2.814-2.27 5.1-5.086 5.105l-20.27.3zM518.221 452.915l-145.999.301c-4.648.009-8.425-3.75-8.433-8.398l-.13-62.705c-.009-4.65 3.751-8.425 8.4-8.435l145.998-.3c4.648-.01 8.426 3.75 8.434 8.398l.129 62.704c.01 4.65-3.75 8.426-8.399 8.435" transform="translate(-411 -1071) translate(411 1071)"/>
                <path fill="#C8D7E5" d="M136.553 190.121c.004 1.97-1.59 3.573-3.561 3.576-1.972.004-3.572-1.59-3.576-3.56-.004-1.971 1.59-3.573 3.56-3.577 1.973-.004 3.573 1.59 3.577 3.561M151.66 190.09c.005 1.972-1.59 3.572-3.561 3.576-1.971.004-3.571-1.59-3.576-3.561-.004-1.972 1.59-3.572 3.562-3.576 1.971-.004 3.571 1.59 3.576 3.562M166.77 190.058c.004 1.972-1.592 3.573-3.562 3.577-1.971.003-3.573-1.59-3.577-3.561-.003-1.971 1.59-3.573 3.561-3.577 1.972-.004 3.573 1.592 3.577 3.561" transform="translate(-411 -1071) translate(411 1071)"/>
                <path fill="#D4D5CF" d="M219.404 223.357c.011 5.698-4.6 10.328-10.299 10.34-5.698.012-10.327-4.598-10.339-10.298-.012-5.699 4.598-10.329 10.297-10.34 5.698-.011 10.328 4.599 10.34 10.298" transform="translate(-411 -1071) translate(411 1071)"/>
                <path fill="#FFFFFE" d="M173.603 277.73l-45.707.094c-1.062.002-1.925-.858-1.927-1.919v-.238c-.003-1.063.857-1.925 1.918-1.926l45.707-.096c1.063-.002 1.925.857 1.928 1.92v.238c.003 1.062-.857 1.925-1.92 1.926M173.621 286.457l-45.707.095c-1.063.001-1.924-.858-1.927-1.92v-.237c-.002-1.063.857-1.925 1.918-1.928l45.708-.094c1.062-.003 1.925.857 1.926 1.918l.001.24c.002 1.06-.858 1.923-1.919 1.926" transform="translate(-411 -1071) translate(411 1071)"/>
                <path fill="#D4D5CF" d="M488.08 324.885L345.67 292.7c-4.533-1.023-7.378-5.53-6.353-10.064l16.02-70.88c1.023-4.533 5.53-7.379 10.063-6.354l142.41 32.186c4.533 1.023 7.376 5.53 6.353 10.063l-16.02 70.88c-1.024 4.535-5.53 7.38-10.064 6.355" transform="translate(-411 -1071) translate(411 1071)"/>
                <path fill="#C9D5E2" d="M428.362 179.344c2.03-1.285 3.985-2.707 5.71-4.358 1.314 1.382 2.517 2.834 3.618 4.339l-9.328.02" transform="translate(-411 -1071) translate(411 1071)"/>
                <path fill="#169186" d="M362.951 179.48c-.067-1.116-.147-2.601-.292-4.343.516-1.993 1.113-3.972 1.768-5.932.613-.378 1.23-.742 1.855-1.094-1.315 3.743-2.423 7.54-3.185 11.368l-.146.001" transform="translate(-411 -1071) translate(411 1071)"/>
                <path fill="#169186" d="M361.549 179.483c-.11-1.855-.258-4.647-.667-7.89.426-.313.857-.62 1.292-.919.217 1.604.371 3.11.485 4.463.145 1.742.225 3.227.292 4.343l-1.402.003" transform="translate(-411 -1071) translate(411 1071)"/>
                <path fill="#335091" d="M350.234 182.308c.691-.969 1.418-1.904 2.173-2.804l85.285-.177c.666.912 1.298 1.847 1.893 2.796l-89.351.185" transform="translate(-411 -1071) translate(411 1071)"/>
                <path fill="#496A71" d="M267.562 354.084c14.849 5.454 27.744 22.49 24.785 34.871-3.342 13.985-12.991 20.017-12.991 20.017l-3.04-5.615s7.713-12.06 7.043-17.754c-1.073-9.12-12.59-15.212-12.59-15.212l-3.207-16.307" transform="translate(-411 -1071) translate(411 1071)"/>
                <path fill="#121C2C" d="M231.007 511.896s-9.12 3.683-11.399 5.761l18.063-.036-.013-5.739-6.651.014M270.92 511.545s2.588 3 3.066 6.006l-12.326.023c.213-2.079 1.099-4.068 2.299-6.017l6.96-.012" transform="translate(-411 -1071) translate(411 1071)"/>
                <path fill="#000" d="M271.67 511.812l-8.414.014c.168-9.912-1.876-43.694-3.85-68.95-1.162-14.812-2.31-26.712-2.982-29.12l4.508-.994 17.01-3.78c2.912 13.3-3.808 74.368-6.272 102.83" transform="translate(-411 -1071) translate(411 1071)"/>
                <path fill="#188E84" d="M240.745 413.223c-6.563 10.339-8.26 85.04-11.006 98.886l7.98.452s9.164-47.097 28.684-100.044l-25.658.706" transform="translate(-411 -1071) translate(411 1071)"/>
                <path fill="#000" d="M259.406 442.876c-.228-2.904-.455-5.697-.679-8.327 2.345-7.12 4.89-14.472 7.643-21.942l3.396-.097c-3.85 10.458-7.308 20.692-10.36 30.366" transform="translate(-411 -1071) translate(411 1071)"/>
                <path fill="#147E78" d="M258.727 434.549c-.914-10.787-1.763-18.857-2.303-20.793l4.508-.994 5.438-.155c-2.753 7.47-5.298 14.821-7.643 21.942" transform="translate(-411 -1071) translate(411 1071)"/>
                <path fill="#132529" d="M240.745 413.223c-6.563 10.339-8.26 85.04-11.006 98.886l7.98.452s9.164-47.097 28.684-100.044l-25.658.706" transform="translate(-411 -1071) translate(411 1071)"/>
                <path fill="#F1B29C" d="M245.76 329.827s-5.107 19.467 7.653 19.442l-.756 4.974 9.69 1.06-2.094-6.931s1.917-12.24 2.044-14.45c.24-4.128-11.325-11.401-16.537-4.095M209.427 328.044c-.1-3.604-3.073-2.66-1.436-8.539 1.014-3.637 8.52.583 7.585 3.105-.934 2.52-2.012 6.508-2.012 6.508l-4.137-1.074" transform="translate(-411 -1071) translate(411 1071)"/>
                <path fill="#3A5796" d="M253.505 353.097c-19.083 1.264-20.34 7.696-28.88 6.689-12.638-1.488-10.426-24.96-8.864-33.379l-7.549.016s-13.608 53.47 29.372 43.583c-1.65 9.366 9.037 24.661-1.326 43.226 16.316 4.431 31.54 5.518 44.575-.088-2.282-3.074 4.679-34.142-8.952-56.507-2.66-4.365-16.98-3.633-18.376-3.54" transform="translate(-411 -1071) translate(411 1071)"/>
                <path fill="#496A71" d="M253.505 353.097c-19.083 1.264-20.34 7.696-28.88 6.689-12.638-1.488-10.426-24.96-8.864-33.379l-7.549.016s-13.608 53.47 29.372 43.583c-1.65 9.366 9.037 24.661-1.326 43.226 16.316 4.431 31.54 5.518 44.575-.088-2.282-3.074 4.679-34.142-8.952-56.507-2.66-4.365-16.98-3.633-18.376-3.54" transform="translate(-411 -1071) translate(411 1071)"/>
                <path fill="#E27B33" d="M250.876 333.558c1.243.317 2.692.556 3.357 1.613.431.686.402 1.54.36 2.34.228-.838 1.155-1.44 2.05-1.337.895.103 1.646.901 1.661 1.765.009.406-.126.8-.276 1.182-.372.943-.85 1.852-1.42 2.7 1.56.573 2.865 5.133 3.645 6.55 2.622-.656 8.453-2.908 8.961-12.193.237-4.325-1.082-9.502-5.772-12.383-3.314-2.033-8.813-2.061-12.605-1.092-3.076.785-7.983 3.857-5.696 7.448 1.155 1.813 3.68 2.882 5.735 3.407" transform="translate(-411 -1071) translate(411 1071)"/>
                <path fill="#E27B33" d="M267.22 327.646c1.777-.59 4.03-.277 5.097 1.207.833 1.158.757 2.677 1.027 4.059.13.666.366 1.346.882 1.806.62.55 1.515.68 2.357.726 2.053.11 4.134-.151 6.158.192 2.026.344 4.097 1.488 4.673 3.381.32 1.046.146 2.198.528 3.224.574 1.542 2.215 2.418 3.644 3.313 3.041 1.905 5.623 4.475 7.495 7.459 1.185 1.89 2.097 3.988 2.241 6.188.143 2.2 1.729 5.106 1.308 7.273-.457 2.336-2.754 5.495-7.294 6.956-7.845 2.525-10.33 3.618-17.845-.848-.907-.539-2.678-2.372-3.497-3.027-.643-.514-1.051-1.258-1.275-2.031-.626-2.158.098-4.483 1.223-6.444 1.127-1.962 2.645-3.698 3.791-5.648.69-1.175 1.252-2.477 1.188-3.82-.026-.503-.153-1.03-.518-1.39-.317-.313-.77-.461-1.216-.548-1.65-.324-3.465.018-4.961-.723-1.455-.722-2.251-2.479-1.81-3.99.294-1.009 1.06-1.86 1.276-2.888.315-1.477-.613-2.997-1.9-3.862-1.286-.866-2.874-1.2-4.423-1.456-.763-.126-1.563-.251-2.184-.696-.766-.55-1.118-1.51-1.108-2.428.034-2.902 2.398-5.07 5.144-5.985" transform="translate(-411 -1071) translate(411 1071)"/>
                <path fill="#E27B33" d="M265.814 335.47c9.44 2.045-2.475 10.99 2.514 15.27 1.423 1.221 3.082.836 4.749 1.067 6.41.887 2.905 5.24 2.468 8.651-.066.514.787.62.902.122.544-2.358 2.709-5.236 1.593-7.744-.984-2.209-3.419-1.95-5.415-2.01-2.502-.076-5.263.004-4.326-4.977.21-1.107 1.095-2.232 1.526-3.273.495-1.201.827-2.394.556-3.707-.458-2.222-2.312-3.528-4.433-3.884-.313-.052-.455.416-.134.486M246.36 323.917c7.28-3.696 14.536-2.959 20.683 2.462.417.368.981-.194.612-.612-5.394-6.07-14.987-7.142-21.493-2.19-.199.15-.034.457.199.34" transform="translate(-411 -1071) translate(411 1071)"/>
                <path fill="#F1B29C" d="M490.888 346.753L487.732 353.097 495.443 356.25 496.266 348.946 490.888 346.753" transform="translate(-411 -1071) translate(411 1071)"/>
                <path fill="#F1B29C" d="M495.543 326.102c-17.49 7.612-10.324 26.062.322 23.895 5.181-1.054 7.805-17.738 7.805-17.738l-8.127-6.157" transform="translate(-411 -1071) translate(411 1071)"/>
                <path fill="#000" d="M501.351 323.477c-.575-1.071-1.118-2.21-2.066-2.972-.948-.762-2.449-1.003-3.34-.175-1.175 1.093-.488 3.141.705 4.218-1.025.125-2.244-.584-3 .12-.573.535-.373 1.482-.045 2.193.771 1.673 2.031 3.116 3.584 4.107-.888.506-1.915 1.479-1.385 2.35.149.24.397.407.54.65.34.565.012 1.283-.328 1.846-.553.911-1.147 1.795-1.784 2.649.6-.825 2.067-.486 2.506.434.441.92.058 2.058-.623 2.816-.376.423-.858.775-1.411.902-.48.112-2.598 6.663-.945 7.946 2.043 1.587 8.992.21 9.997-1.582 1.006 1.091 2.478 1.917 3.934 1.627 1.455-.288 2.565-2.084 1.78-3.342 1.572.58 3.484.069 4.558-1.218 1.074-1.288 1.23-3.262.377-4.705.857-.258 1.029-1.417.81-2.285-.443-1.757-1.874-3.228-3.619-3.72.887.016 1.59-.876 1.631-1.76.041-.884-.418-1.719-.975-2.406-1.644-2.024-3.587-2.566-6.012-2.873-2.453-.31-3.804-2.805-4.889-4.82" transform="translate(-411 -1071) translate(411 1071)"/>
                <path fill="#121C2C" d="M484.963 510.68s-10.231 4.915-11.606 6.446c0 0 20.133.906 21.71-.044 1.575-.951-3.225-6.414-3.225-6.414l-6.88.013M523.03 505.127s-8.995 6.924-10.02 8.707c0 0 21.229-3.152 21.229-4.538 0-1.386-4.483-5.608-4.483-5.608l-6.726 1.439" transform="translate(-411 -1071) translate(411 1071)"/>
                <path fill="#000" d="M494.858 415.815c-.38 2.08-14.39 57.388 25.696 90.545l11.611-2.662s-13.513-12.676-19.881-35.485c-6.023-21.568-1.24-23.684 2.371-35.564 3.999-13.149 1.025-22.695 1.025-22.695l-20.822 5.861" transform="translate(-411 -1071) translate(411 1071)"/>
                <path fill="#132529" d="M475.699 415.646c-6.355 15.186-17.265 66.942 6.514 96.083l11.874-.023s-9.354-10.251-10.4-34.036c-1.044-23.782 5.001-34.223 9.267-42.07 4.264-7.848 8.212-21.185 8.212-21.185l-25.467 1.231" transform="translate(-411 -1071) translate(411 1071)"/>
                <path fill="#3A545A" d="M467.32 321.496c-3.154 11.122-4.192 31.67 11.609 39.946l10.575-2.577s-19.065-9.996-14.981-35.26l-7.203-2.109" transform="translate(-411 -1071) translate(411 1071)"/>
                <path fill="#496A71" d="M438.186 315.802l8.21-1.012s-.989 34.472 38.823 37.374c30.39 2.217 32.778 59.246 32.778 59.246-9.798 6.596-26.243 8.594-47.313 7.084 0 0 1.348-40.687-1.999-51.824 0 0-33.076-10.406-30.499-50.868" transform="translate(-411 -1071) translate(411 1071)"/>
                <path fill="#F1B29C" d="M428.148 309.546c-1.389 1.61 4.413 3.652 10.038 6.256l7.204-.889s.084-1.439-.005-2.938c-.091-1.5-.843-2.357-1.697-1.069-.854 1.287-4.497 1.724-6.213.55-1.717-1.177-7.937-3.52-9.327-1.91M467.32 321.496c-2.639-2.597-1.939-2.439-1.939-2.439l8.051 1.82s1.771-3.928 3.27-4.039c1.5-.11-1.13 2.708-.527 3.752.603 1.043-1.652 3.016-1.652 3.016l-7.203-2.11" transform="translate(-411 -1071) translate(411 1071)"/>
                <path fill="#494D8F" d="M505.872 327.274c1.649.42 3.337.59 4.702 1.715 1.356 1.117 1.969 3.032.99 4.592-.458.732.632 1.302 1.124.658 1.255-1.637.915-3.881-.345-5.427-1.452-1.782-4.153-2.52-6.372-2.282-.396.045-.542.63-.1.744M513.152 342.21c1.09.642 2.009 1.685 1.545 3.033-.43 1.247-1.7 1.992-2.72 2.707-.49.345-.068 1.1.475.812 1.51-.798 3.112-1.922 3.347-3.759.206-1.607-.87-2.829-2.205-3.549-.495-.268-.93.468-.442.756M494.766 350.554c3.711 2.306 8.957 1.931 12.023-1.311.38-.4-.133-1.157-.615-.798-3.356 2.483-7.162 3.288-11.105 1.589-.347-.149-.64.31-.303.52" transform="translate(-411 -1071) translate(411 1071)"/>
                <path fill="#494D8F" d="M513.638 329.71c2.129 2.024-.005 4.799-1.371 6.536-.301.384.175.9.55.55 1.217-1.138 2.432-2.388 2.597-4.136.123-1.312-.416-2.564-1.585-3.2-.155-.083-.327.121-.191.25" transform="translate(-411 -1071) translate(411 1071)"/>
                <path fill="#1E3F86" d="M276.818 73.951L273.533 65.932 305.215 53.901 276.818 73.951" transform="translate(-411 -1071) translate(411 1071)"/>
                <path fill="#5E82B5" d="M278.414 69.007L305.215 53.901 286.559 72.85 278.414 69.007M266.283 62.665L305.215 53.901 273.533 65.932 266.283 62.665" transform="translate(-411 -1071) translate(411 1071)"/>
                <path fill="#3A5796" d="M278.414 69.007L276.818 73.951 281.653 70.536 278.414 69.007" transform="translate(-411 -1071) translate(411 1071)"/>
                <path fill="#C8D7E5" d="M273.211 72.188c-.655-.11-1.325-.164-2-.164-1.277 0-2.575.19-3.846.535-.372.101-.594.486-.491.858.1.374.485.594.86.493 1.16-.316 2.339-.486 3.477-.486.602 0 1.194.048 1.767.145.382.064.743-.192.807-.574.065-.381-.191-.742-.574-.807zm-11.113 2.837c-1.646 1.148-3.064 2.577-4.058 4.214-.2.33-.096.76.235.961.33.2.761.096.962-.235.873-1.439 2.153-2.741 3.662-3.792.318-.222.395-.657.174-.975-.222-.316-.657-.395-.975-.173zm-5.506 9.969c.105 1.285.5 2.601 1.222 3.903.367.66.965 1.124 1.64 1.437.351.162.767.008.93-.342.16-.351.008-.767-.344-.93-.487-.225-.819-.513-1-.844-.635-1.144-.963-2.26-1.054-3.339-.03-.386-.37-.672-.754-.641-.385.032-.672.371-.64.756zm8.855 5.492c.836-.26 1.595-.628 2.185-1.14.588-.506 1.022-1.215 1.021-2.045 0-.157-.015-.316-.046-.476-.112-.593-.412-1.103-.802-1.49-.275-.271-.719-.27-.99.005-.273.274-.272.718.003.99.218.218.355.457.414.76l.021.211c-.001.333-.155.646-.54.989-.381.334-.979.644-1.68.86-.37.114-.577.506-.462.876.114.368.506.575.876.46zm-3.639-5.866c-2.279.604-3.946 1.686-5.115 2.96-.262.284-.244.726.042.988.284.262.726.244.988-.04.994-1.078 2.4-2.01 4.445-2.555.374-.1.597-.483.497-.857-.1-.373-.483-.595-.857-.496zm-7.599 8.346c-.077.543-.109 1.05-.109 1.498 0 .547.046 1.006.119 1.362.235 1.131.63 2.124 1.16 2.979.204.328.635.43.964.225.329-.203.43-.634.227-.963-.44-.708-.775-1.54-.98-2.525-.048-.23-.09-.612-.09-1.078 0-.383.027-.825.095-1.3.056-.382-.21-.737-.592-.792-.384-.055-.738.21-.794.594zm5.866 9.487c1.763.646 3.731.917 5.723.966.387.009.707-.296.717-.683.01-.386-.297-.707-.683-.717-1.887-.044-3.711-.306-5.274-.88-.364-.133-.766.053-.899.416-.133.362.054.764.416.898zm11.421.591c2.145-.304 4.093-.738 5.567-1.111.374-.096.6-.476.505-.852-.095-.373-.476-.6-.851-.505-1.436.365-3.339.788-5.417 1.082-.382.053-.65.408-.595.791.055.382.41.648.791.595z" transform="translate(-411 -1071) translate(411 1071)"/>
            </g>
        </g>
    </g>
</svg>
