<svg xmlns="http://www.w3.org/2000/svg" width="398.48" height="125.92"><path fill="#1aa6a6" d="M398.48 109.8c0 8.91-7.22 16.13-16.12 16.13s-16.12-7.22-16.12-16.13 7.22-16.12 16.12-16.12 16.12 7.22 16.12 16.12"/><path d="M29.02 46.86c3.51-12.06 18.11-21.82 32.72-22.05 15.44-.24 30.19 9.04 34.5 22.05H29.02Zm95.96 21.97c.2-2.03.31-4.1.31-6.18C125.29 28.05 97.24 0 62.64 0S0 28.05 0 62.64s28.05 62.64 62.64 62.64c24.02 0 44.87-13.53 55.38-33.37H86.39a37.536 37.536 0 0 1-23.76 8.44c-18.76 0-34.31-13.7-37.22-31.64l99.55.12Zm74.44-38.09c-2.1-4.88-4.74-10.81-7-16.08-2.99-6.94-5.78-12.75-5.78-12.75s-7.95-1.43-16.32-.7c-20.99 1.85-32.08 12.98-34.73 27.92-2.68 15.12 3.99 26.58 16.73 34.53 5.06 3.16 10.58 5.59 15.82 8.48 4.8 2.64 9.72 5.14 14.18 8.28 4.29 3.02 7.02 7.36 5.4 12.92-1.66 5.68-6.61 7.16-11.73 7.69-9.75 1.02-18.27-2.6-26.36-7.54-1.5-.92-2.98-1.89-4.34-2.75-3.77 7.37-7.29 14.27-10.98 21.49 17.03 11.94 35.49 16.63 55.68 10.39 11.4-3.52 19.52-11.28 23.24-22.93 4.64-14.51-.2-29.44-13.56-39.21-7.06-5.17-15.15-8.92-22.74-13.37-4.01-2.35-8.31-4.37-11.83-7.32-5.86-4.9-3.97-12.6 3.44-14.52 2.99-.78 6.36-1 9.37-.59 7.04.96 12.91 2.66 21.52 6.05M387.29 0h-28c-9.41 21.45-18.81 42.89-28.72 65.49-10.72-21.79-21.05-42.78-31.7-64.4-10.73 21.65-21.12 42.6-31.94 64.43-5.49-12.74-10.54-24.59-15.7-36.39-4.25-9.74-8.62-19.42-12.94-29.13h-28c.39 1.09.73 2.21 1.19 3.27 17.14 39.71 34.3 79.41 51.47 119.11.36.83.98 1.53 1.75 2.7 11.42-24.91 22.6-49.32 34.19-74.6 11.46 25.42 22.51 49.94 33.88 75.15 1.08-2.37 1.85-4.01 2.58-5.67 9.77-22.42 19.56-44.82 29.29-67.26 7.6-17.54 15.11-35.12 22.67-52.69Z"/></svg>